<svg xmlns="http://www.w3.org/2000/svg" xmlns:xlink="http://www.w3.org/1999/xlink" xmlns:lucid="lucid" width="1617" height="729"><g transform="translate(-22 -609)" lucid:page-tab-id="HWEp-vi-RSFO"><path d="M0 0h1760v1360H0z" fill="#fff"/><path d="M1240 892.63h360v156h-360z" stroke="#000" stroke-width="2" fill="#fff"/><path d="M1240 930.4h360m-360 59.28h360" stroke="#000" stroke-width="2" fill="none"/><use xlink:href="#a" transform="matrix(1,0,0,1,1248,900.625) translate(87.10205078125 17.5478515625)"/><use xlink:href="#b" transform="matrix(1,0,0,1,1248,900.625) translate(163.10986328125 17.5478515625)"/><use xlink:href="#c" transform="matrix(1,0,0,1,1252,997.68359375) translate(0 28.5478515625)"/><use xlink:href="#d" transform="matrix(1,0,0,1,1252,997.68359375) translate(16.9716796875 28.5478515625)"/><path d="M760 880h360v182H760z" stroke="#000" stroke-width="2" fill="#fff"/><path d="M760 917.78h360m-360 59.28h360" stroke="#000" stroke-width="2" fill="none"/><use xlink:href="#e" transform="matrix(1,0,0,1,768,888) translate(104.39892578125 17.5478515625)"/><use xlink:href="#c" transform="matrix(1,0,0,1,772,985.05859375) translate(0 28.480273437500003)"/><use xlink:href="#f" transform="matrix(1,0,0,1,772,985.05859375) translate(16.9716796875 28.480273437500003)"/><use xlink:href="#c" transform="matrix(1,0,0,1,772,985.05859375) translate(0 54.6154296875)"/><use xlink:href="#g" transform="matrix(1,0,0,1,772,985.05859375) translate(16.9716796875 54.6154296875)"/><path d="M760 640h360v156H760z" stroke="#000" stroke-width="2" fill="#fff"/><path d="M760 677.78h360m-360 59.28h360" stroke="#000" stroke-width="2" fill="none"/><use xlink:href="#h" transform="matrix(1,0,0,1,768,648) translate(67.3662109375 17.5478515625)"/><use xlink:href="#c" transform="matrix(1,0,0,1,772,745.05859375) translate(0 28.5478515625)"/><use xlink:href="#i" transform="matrix(1,0,0,1,772,745.05859375) translate(16.9716796875 28.5478515625)"/><path d="M760 1146h360v156H760z" stroke="#000" stroke-width="2" fill="#fff"/><path d="M760 1183.78h360m-360 59.28h360" stroke="#000" stroke-width="2" fill="none"/><use xlink:href="#j" transform="matrix(1,0,0,1,768,1154) translate(66.19287109375 17.5478515625)"/><use xlink:href="#c" transform="matrix(1,0,0,1,772,1251.05859375) translate(0 28.5478515625)"/><use xlink:href="#g" transform="matrix(1,0,0,1,772,1251.05859375) translate(16.9716796875 28.5478515625)"/><path d="M60 780h260v80H60z" stroke="#000" stroke-width="2" fill="#fff"/><use xlink:href="#k" transform="matrix(1,0,0,1,65,785) translate(18.97314453125 41.5478515625)"/><path d="M400 780h260v80H400z" stroke="#000" stroke-width="2" fill="#fff"/><use xlink:href="#l" transform="matrix(1,0,0,1,405,785) translate(5.67529296875 41.5478515625)"/><path d="M60 1100h260v80H60z" stroke="#000" stroke-width="2" fill="#fff"/><use xlink:href="#m" transform="matrix(1,0,0,1,65,1105) translate(17.7998046875 41.5478515625)"/><path d="M400 1100h260v80H400z" stroke="#000" stroke-width="2" fill="#fff"/><use xlink:href="#n" transform="matrix(1,0,0,1,405,1105) translate(4.501953125 41.5478515625)"/><path d="M60 931h260v80H60z" stroke="#000" stroke-width="2" fill="#fff"/><use xlink:href="#o" transform="matrix(1,0,0,1,65,936) translate(56.005859375 41.5478515625)"/><path d="M400 930.63h260v80H400z" stroke="#000" stroke-width="2" fill="#fff"/><use xlink:href="#p" transform="matrix(1,0,0,1,405,935.625) translate(42.7080078125 41.5478515625)"/><path d="M1238 970.63h-115.18" stroke="#333" stroke-width="2" fill="none"/><path d="M1239 971.6h-1.03v-1.95h1.03z" stroke="#333" stroke-width=".05" fill="#333"/><path d="M1140.32 980.63l-17.32-10 17.32-10M940 798v9.4m0 9.38v18.8m0 9.38v9.4" stroke="#333" stroke-width="2" fill="none"/><path d="M940.98 798.03H939V797H941z" stroke="#333" stroke-width=".05" fill="#333"/><path d="M940 877l-12.5-21.65h25z" stroke="#333" stroke-width="2" fill="#fff"/><path d="M940 1144v-9.4m0-9.38v-18.8m0-9.38v-9.4" stroke="#333" stroke-width="2" fill="none"/><path d="M940.98 1145H939v-1.03H941z" stroke="#333" stroke-width=".05" fill="#333"/><path d="M940 1065l12.5 21.65h-25z" stroke="#333" stroke-width="2" fill="#fff"/><path d="M758 718h-9.75m-9.76 0h-19.52m-9.75 0h-19.5m-9.76 0h-19.5m-9.77 0h-19.5m-9.76 0h-19.5m-9.77 0h-19.5m-9.76 0h-19.5m-9.75 0h-19.5m-9.76 0h-19.52m-9.76 0h-19.5m-9.76 0h-19.5m-9.76 0h-19.5m-9.77 0h-19.5m-9.76 0h-19.5m-9.76 0h-19.5m-9.76 0h-19.5m-9.76 0h-19.5m-9.76 0h-19.5m-9.77 0H202l-1.88.15-1.83.44-1.75.7-1.6 1-1.44 1.22-1.2 1.43-1 1.6-.7 1.74-.45 1.82L190 730v7.86m0 7.87v15.73m0 7.86v7.86" stroke="#333" stroke-width="2" fill="none"/><path d="M759 718.98h-1.03V717H759z" stroke="#333" stroke-width=".05" fill="#333"/><path d="M200 759.68L190 777l-10-17.32M758 718h-10.3m-10.27 0h-20.57m-10.3 0H686m-10.3 0h-20.56m-10.28 0H624.3m-10.3 0h-20.57m-10.3 0h-20.56m-10.28 0H542l-1.88.15-1.83.44-1.75.7-1.6 1-1.44 1.22-1.2 1.43-1 1.6-.7 1.74-.45 1.82L530 730v7.86m0 7.87v15.73m0 7.86v7.86" stroke="#333" stroke-width="2" fill="none"/><path d="M759 718.98h-1.03V717H759z" stroke="#333" stroke-width=".05" fill="#333"/><path d="M540 759.68L530 777l-10-17.32M758 1224h-9.75m-9.76 0h-19.52m-9.75 0h-19.5m-9.76 0h-19.5m-9.77 0h-19.5m-9.76 0h-19.5m-9.77 0h-19.5m-9.76 0h-19.5m-9.75 0h-19.5m-9.76 0h-19.52m-9.76 0h-19.5m-9.76 0h-19.5m-9.76 0h-19.5m-9.77 0h-19.5m-9.76 0h-19.5m-9.76 0h-19.5m-9.76 0h-19.5m-9.76 0h-19.5m-9.76 0h-19.5m-9.77 0H202l-1.88-.15-1.83-.44-1.75-.7-1.6-1-1.44-1.22-1.2-1.43-1-1.6-.7-1.74-.45-1.82-.15-1.88v-9.73m0-9.72v-9.73" stroke="#333" stroke-width="2" fill="none"/><path d="M759 1224.97h-1.03v-1.94H759z" stroke="#333" stroke-width=".05" fill="#333"/><path d="M180 1200.32l10-17.32 10 17.32M758 1224h-10.3m-10.27 0h-20.57m-10.3 0H686m-10.3 0h-20.56m-10.28 0H624.3m-10.3 0h-20.57m-10.3 0h-20.56m-10.28 0H542l-1.88-.15-1.83-.44-1.75-.7-1.6-1-1.44-1.22-1.2-1.43-1-1.6-.7-1.74-.45-1.82-.15-1.88v-9.73m0-9.72v-9.73" stroke="#333" stroke-width="2" fill="none"/><path d="M759 1224.97h-1.03v-1.94H759z" stroke="#333" stroke-width=".05" fill="#333"/><path d="M520 1200.32l10-17.32 10 17.32M190 1098v-61.35" stroke="#333" stroke-width="2" fill="none"/><path d="M190.97 1099h-1.94v-1.03h1.94z" stroke="#333" stroke-width=".05" fill="#333"/><path d="M190 1014l12.5 21.65h-25z" stroke="#333" stroke-width="2" fill="#fff"/><path d="M530 1098v-61.72" stroke="#333" stroke-width="2" fill="none"/><path d="M530.98 1099H529v-1.03H531z" stroke="#333" stroke-width=".05" fill="#333"/><path d="M530 1013.63l12.5 21.65h-25z" stroke="#333" stroke-width="2" fill="#fff"/><path d="M190 862v43.35" stroke="#333" stroke-width="2" fill="none"/><path d="M190.97 862.03h-1.94V861h1.94z" stroke="#333" stroke-width=".05" fill="#333"/><path d="M190 928l-12.5-21.65h25z" stroke="#333" stroke-width="2" fill="#fff"/><path d="M530 862v42.97" stroke="#333" stroke-width="2" fill="none"/><path d="M530.98 862.03H529V861H531z" stroke="#333" stroke-width=".05" fill="#333"/><path d="M530 927.63l-12.5-21.66h25z" stroke="#333" stroke-width="2" fill="#fff"/><defs><path d="M52 0l541-1490h220L1361 0h-200l-149-416H398L254 0H52zm404-582h497c-103-290-145-390-251-756-108 377-145 460-246 756" id="q"/><path d="M613 24c-304 0-509-231-509-576 0-350 205-580 509-580 216 0 392 114 453 309l-173 49c-33-115-133-197-280-197-223 0-326 196-326 419 0 220 103 415 326 415 150 0 252-85 285-206l172 49C1010-95 832 24 613 24" id="r"/><path d="M613 24c-304 0-509-231-509-576 0-350 205-580 509-580 305 0 511 230 511 580 0 345-206 576-511 576zm0-161c226 0 329-195 329-415 0-222-103-419-329-419-223 0-326 196-326 419 0 220 103 415 326 415" id="s"/><path d="M537 14c-226 0-379-139-379-422v-710h180v695c0 172 97 275 253 275 160 0 281-109 281-300v-670h181V0H879v-209C806-46 684 14 537 14" id="t"/><path d="M338-670V0H158v-1118h173l1 207c72-158 192-221 342-221 226 0 378 139 378 422V0H872v-695c0-172-96-275-252-275-161 0-282 109-282 300" id="u"/><path d="M598-1118v154H368v674c0 100 37 144 132 144 23 0 62-6 92-12L629-6c-37 13-88 20-134 20-193 0-307-107-307-290v-688H20v-154h168v-266h180v266h230" id="v"/><g id="a"><use transform="matrix(0.0087890625,0,0,0.0087890625,0,0)" xlink:href="#q"/><use transform="matrix(0.0087890625,0,0,0.0087890625,12.4189453125,0)" xlink:href="#r"/><use transform="matrix(0.0087890625,0,0,0.0087890625,22.7021484375,0)" xlink:href="#r"/><use transform="matrix(0.0087890625,0,0,0.0087890625,32.9853515625,0)" xlink:href="#s"/><use transform="matrix(0.0087890625,0,0,0.0087890625,43.7783203125,0)" xlink:href="#t"/><use transform="matrix(0.0087890625,0,0,0.0087890625,54.421875,0)" xlink:href="#u"/><use transform="matrix(0.0087890625,0,0,0.0087890625,65.056640625,0)" xlink:href="#v"/></g><path d="M218-607c0-325 108-727 258-974h175c-155 315-250 682-250 974 0 265 78 531 250 886H476C306-10 218-315 218-607" id="w"/><path d="M158 0v-1118h174v172h12c41-113 157-188 290-188 26 0 70 2 91 3v181c-11-2-60-10-108-10-161 0-279 109-279 260V0H158" id="x"/><path d="M338-1490V0H158v-1490h180" id="y"/><path d="M628 24c-324 0-524-230-524-574 0-343 198-582 503-582 237 0 487 146 487 559v75H286c9 234 145 362 343 362 132 0 231-58 273-172l174 48C1024-91 857 24 628 24zM287-650h624c-17-190-120-322-304-322-192 0-309 151-320 322" id="z"/><path d="M96 279C273-86 346-350 346-607c0-292-95-659-250-974h175c150 246 258 650 258 974 0 297-91 602-258 886H96" id="A"/><g id="b"><use transform="matrix(0.0087890625,0,0,0.0087890625,0,0)" xlink:href="#w"/><use transform="matrix(0.0087890625,0,0,0.0087890625,6.36328125,0)" xlink:href="#r"/><use transform="matrix(0.0087890625,0,0,0.0087890625,16.646484375,0)" xlink:href="#s"/><use transform="matrix(0.0087890625,0,0,0.0087890625,27.439453125,0)" xlink:href="#u"/><use transform="matrix(0.0087890625,0,0,0.0087890625,38.07421875,0)" xlink:href="#v"/><use transform="matrix(0.0087890625,0,0,0.0087890625,43.962890625,0)" xlink:href="#x"/><use transform="matrix(0.0087890625,0,0,0.0087890625,50.4404296875,0)" xlink:href="#s"/><use transform="matrix(0.0087890625,0,0,0.0087890625,61.2333984375,0)" xlink:href="#y"/><use transform="matrix(0.0087890625,0,0,0.0087890625,65.5927734375,0)" xlink:href="#y"/><use transform="matrix(0.0087890625,0,0,0.0087890625,69.9521484375,0)" xlink:href="#z"/><use transform="matrix(0.0087890625,0,0,0.0087890625,80.4462890625,0)" xlink:href="#x"/><use transform="matrix(0.0087890625,0,0,0.0087890625,87.22265625,0)" xlink:href="#A"/></g><path d="M593-100v-404H195v-159h398v-403h169v403h398v159H762v404H593" id="B"/><use transform="matrix(0.0087890625,0,0,0.0087890625,0,0)" xlink:href="#B" id="c"/><path d="M471 26C259 26 90-98 90-318c0-256 228-303 435-329 202-27 287-16 287-108 0-139-79-219-234-219-161 0-248 86-283 164l-173-57c86-203 278-265 451-265 150 0 419 46 419 395V0H815v-152h-12C765-73 660 26 471 26zm31-159c199 0 310-134 310-271v-155c-30 35-226 55-295 64-131 17-246 59-246 186 0 116 97 176 231 176" id="C"/><g id="d"><use transform="matrix(0.0087890625,0,0,0.0087890625,0,0)" xlink:href="#r"/><use transform="matrix(0.0087890625,0,0,0.0087890625,10.283203125,0)" xlink:href="#x"/><use transform="matrix(0.0087890625,0,0,0.0087890625,16.7607421875,0)" xlink:href="#z"/><use transform="matrix(0.0087890625,0,0,0.0087890625,27.4306640625,0)" xlink:href="#C"/><use transform="matrix(0.0087890625,0,0,0.0087890625,37.5380859375,0)" xlink:href="#v"/><use transform="matrix(0.0087890625,0,0,0.0087890625,43.2509765625,0)" xlink:href="#z"/><use transform="matrix(0.0087890625,0,0,0.0087890625,53.7451171875,0)" xlink:href="#w"/><use transform="matrix(0.0087890625,0,0,0.0087890625,60.310546875,0)" xlink:href="#A"/></g><path d="M180 0v-1490h901v168H370v510h643v168H370V0H180" id="D"/><path d="M140 405l46-156c120 36 205 19 263-150l32-93L54-1118h197c107 313 237 620 324 950 87-331 219-637 326-950h196L606 167c-68 178-176 259-334 259-64 0-113-12-132-21" id="E"/><g id="e"><use transform="matrix(0.0087890625,0,0,0.0087890625,0,0)" xlink:href="#q"/><use transform="matrix(0.0087890625,0,0,0.0087890625,12.4189453125,0)" xlink:href="#r"/><use transform="matrix(0.0087890625,0,0,0.0087890625,22.7021484375,0)" xlink:href="#r"/><use transform="matrix(0.0087890625,0,0,0.0087890625,32.9853515625,0)" xlink:href="#s"/><use transform="matrix(0.0087890625,0,0,0.0087890625,43.7783203125,0)" xlink:href="#t"/><use transform="matrix(0.0087890625,0,0,0.0087890625,54.421875,0)" xlink:href="#u"/><use transform="matrix(0.0087890625,0,0,0.0087890625,65.056640625,0)" xlink:href="#v"/><use transform="matrix(0.0087890625,0,0,0.0087890625,70.9453125,0)" xlink:href="#D"/><use transform="matrix(0.0087890625,0,0,0.0087890625,81.1318359375,0)" xlink:href="#C"/><use transform="matrix(0.0087890625,0,0,0.0087890625,91.2392578125,0)" xlink:href="#r"/><use transform="matrix(0.0087890625,0,0,0.0087890625,101.5224609375,0)" xlink:href="#v"/><use transform="matrix(0.0087890625,0,0,0.0087890625,107.2353515625,0)" xlink:href="#s"/><use transform="matrix(0.0087890625,0,0,0.0087890625,118.0283203125,0)" xlink:href="#x"/><use transform="matrix(0.0087890625,0,0,0.0087890625,125.0859375,0)" xlink:href="#E"/></g><path d="M180 0v-1490h510c348 0 508 209 508 474 0 266-160 477-507 477H370V0H180zm190-706h312c236 0 327-133 327-310 0-176-91-307-329-307H370v617" id="F"/><path d="M538 24C308 24 148-78 108-271l171-41c32 123 123 178 257 178 156 0 256-77 256-169 0-77-54-128-164-154l-186-44c-203-48-300-148-300-305 0-192 176-326 414-326 230 0 351 112 402 269l-163 42c-31-80-94-158-238-158-133 0-233 69-233 162 0 83 57 129 188 160l169 40c203 48 298 149 298 302 0 196-179 339-441 339" id="G"/><g id="f"><use transform="matrix(0.0087890625,0,0,0.0087890625,0,0)" xlink:href="#r"/><use transform="matrix(0.0087890625,0,0,0.0087890625,10.283203125,0)" xlink:href="#x"/><use transform="matrix(0.0087890625,0,0,0.0087890625,16.7607421875,0)" xlink:href="#z"/><use transform="matrix(0.0087890625,0,0,0.0087890625,27.4306640625,0)" xlink:href="#C"/><use transform="matrix(0.0087890625,0,0,0.0087890625,37.5380859375,0)" xlink:href="#v"/><use transform="matrix(0.0087890625,0,0,0.0087890625,43.2509765625,0)" xlink:href="#z"/><use transform="matrix(0.0087890625,0,0,0.0087890625,53.7451171875,0)" xlink:href="#F"/><use transform="matrix(0.0087890625,0,0,0.0087890625,65.14453125,0)" xlink:href="#z"/><use transform="matrix(0.0087890625,0,0,0.0087890625,75.638671875,0)" xlink:href="#x"/><use transform="matrix(0.0087890625,0,0,0.0087890625,82.4150390625,0)" xlink:href="#G"/><use transform="matrix(0.0087890625,0,0,0.0087890625,91.916015625,0)" xlink:href="#s"/><use transform="matrix(0.0087890625,0,0,0.0087890625,102.708984375,0)" xlink:href="#u"/><use transform="matrix(0.0087890625,0,0,0.0087890625,113.34375,0)" xlink:href="#C"/><use transform="matrix(0.0087890625,0,0,0.0087890625,123.451171875,0)" xlink:href="#y"/><use transform="matrix(0.0087890625,0,0,0.0087890625,127.810546875,0)" xlink:href="#q"/><use transform="matrix(0.0087890625,0,0,0.0087890625,140.2294921875,0)" xlink:href="#r"/><use transform="matrix(0.0087890625,0,0,0.0087890625,150.5126953125,0)" xlink:href="#r"/><use transform="matrix(0.0087890625,0,0,0.0087890625,160.7958984375,0)" xlink:href="#s"/><use transform="matrix(0.0087890625,0,0,0.0087890625,171.5888671875,0)" xlink:href="#t"/><use transform="matrix(0.0087890625,0,0,0.0087890625,182.232421875,0)" xlink:href="#u"/><use transform="matrix(0.0087890625,0,0,0.0087890625,192.8671875,0)" xlink:href="#v"/><use transform="matrix(0.0087890625,0,0,0.0087890625,198.755859375,0)" xlink:href="#w"/><use transform="matrix(0.0087890625,0,0,0.0087890625,205.3212890625,0)" xlink:href="#A"/></g><path d="M180 0v-1490h528c311 0 458 177 458 395 0 191-114 278-244 313v14c139 9 302 137 302 371 0 225-148 397-499 397H180zm190-168h350c232 0 321-102 321-231 0-149-120-277-311-277H370v508zm0-668h328c160 0 286-101 286-255 0-129-87-231-280-231H370v486" id="H"/><path d="M158 0v-1118h180V0H158zm91-1301c-68 0-125-53-125-119s57-119 125-119c69 0 126 53 126 119s-57 119-126 119" id="I"/><g id="g"><use transform="matrix(0.0087890625,0,0,0.0087890625,0,0)" xlink:href="#r"/><use transform="matrix(0.0087890625,0,0,0.0087890625,10.283203125,0)" xlink:href="#x"/><use transform="matrix(0.0087890625,0,0,0.0087890625,16.7607421875,0)" xlink:href="#z"/><use transform="matrix(0.0087890625,0,0,0.0087890625,27.4306640625,0)" xlink:href="#C"/><use transform="matrix(0.0087890625,0,0,0.0087890625,37.5380859375,0)" xlink:href="#v"/><use transform="matrix(0.0087890625,0,0,0.0087890625,43.2509765625,0)" xlink:href="#z"/><use transform="matrix(0.0087890625,0,0,0.0087890625,53.7451171875,0)" xlink:href="#H"/><use transform="matrix(0.0087890625,0,0,0.0087890625,65.5224609375,0)" xlink:href="#t"/><use transform="matrix(0.0087890625,0,0,0.0087890625,76.166015625,0)" xlink:href="#G"/><use transform="matrix(0.0087890625,0,0,0.0087890625,85.6669921875,0)" xlink:href="#G"/><use transform="matrix(0.0087890625,0,0,0.0087890625,95.16796875,0)" xlink:href="#I"/><use transform="matrix(0.0087890625,0,0,0.0087890625,99.52734375,0)" xlink:href="#u"/><use transform="matrix(0.0087890625,0,0,0.0087890625,110.162109375,0)" xlink:href="#z"/><use transform="matrix(0.0087890625,0,0,0.0087890625,120.65625,0)" xlink:href="#G"/><use transform="matrix(0.0087890625,0,0,0.0087890625,130.1572265625,0)" xlink:href="#q"/><use transform="matrix(0.0087890625,0,0,0.0087890625,142.576171875,0)" xlink:href="#r"/><use transform="matrix(0.0087890625,0,0,0.0087890625,152.859375,0)" xlink:href="#r"/><use transform="matrix(0.0087890625,0,0,0.0087890625,163.142578125,0)" xlink:href="#s"/><use transform="matrix(0.0087890625,0,0,0.0087890625,173.935546875,0)" xlink:href="#t"/><use transform="matrix(0.0087890625,0,0,0.0087890625,184.5791015625,0)" xlink:href="#u"/><use transform="matrix(0.0087890625,0,0,0.0087890625,195.2138671875,0)" xlink:href="#v"/><use transform="matrix(0.0087890625,0,0,0.0087890625,201.1025390625,0)" xlink:href="#w"/><use transform="matrix(0.0087890625,0,0,0.0087890625,207.66796875,0)" xlink:href="#A"/></g><g id="h"><use transform="matrix(0.0087890625,0,0,0.0087890625,0,0)" xlink:href="#F"/><use transform="matrix(0.0087890625,0,0,0.0087890625,11.3994140625,0)" xlink:href="#z"/><use transform="matrix(0.0087890625,0,0,0.0087890625,21.8935546875,0)" xlink:href="#x"/><use transform="matrix(0.0087890625,0,0,0.0087890625,28.669921875,0)" xlink:href="#G"/><use transform="matrix(0.0087890625,0,0,0.0087890625,38.1708984375,0)" xlink:href="#s"/><use transform="matrix(0.0087890625,0,0,0.0087890625,48.9638671875,0)" xlink:href="#u"/><use transform="matrix(0.0087890625,0,0,0.0087890625,59.5986328125,0)" xlink:href="#C"/><use transform="matrix(0.0087890625,0,0,0.0087890625,69.7060546875,0)" xlink:href="#y"/><use transform="matrix(0.0087890625,0,0,0.0087890625,74.0654296875,0)" xlink:href="#q"/><use transform="matrix(0.0087890625,0,0,0.0087890625,86.484375,0)" xlink:href="#r"/><use transform="matrix(0.0087890625,0,0,0.0087890625,96.767578125,0)" xlink:href="#r"/><use transform="matrix(0.0087890625,0,0,0.0087890625,107.05078125,0)" xlink:href="#s"/><use transform="matrix(0.0087890625,0,0,0.0087890625,117.84375,0)" xlink:href="#t"/><use transform="matrix(0.0087890625,0,0,0.0087890625,128.4873046875,0)" xlink:href="#u"/><use transform="matrix(0.0087890625,0,0,0.0087890625,139.1220703125,0)" xlink:href="#v"/><use transform="matrix(0.0087890625,0,0,0.0087890625,145.0107421875,0)" xlink:href="#D"/><use transform="matrix(0.0087890625,0,0,0.0087890625,155.197265625,0)" xlink:href="#C"/><use transform="matrix(0.0087890625,0,0,0.0087890625,165.3046875,0)" xlink:href="#r"/><use transform="matrix(0.0087890625,0,0,0.0087890625,175.587890625,0)" xlink:href="#v"/><use transform="matrix(0.0087890625,0,0,0.0087890625,181.30078125,0)" xlink:href="#s"/><use transform="matrix(0.0087890625,0,0,0.0087890625,192.09375,0)" xlink:href="#x"/><use transform="matrix(0.0087890625,0,0,0.0087890625,199.1513671875,0)" xlink:href="#E"/></g><g id="i"><use transform="matrix(0.0087890625,0,0,0.0087890625,0,0)" xlink:href="#r"/><use transform="matrix(0.0087890625,0,0,0.0087890625,10.283203125,0)" xlink:href="#x"/><use transform="matrix(0.0087890625,0,0,0.0087890625,16.7607421875,0)" xlink:href="#z"/><use transform="matrix(0.0087890625,0,0,0.0087890625,27.4306640625,0)" xlink:href="#C"/><use transform="matrix(0.0087890625,0,0,0.0087890625,37.5380859375,0)" xlink:href="#v"/><use transform="matrix(0.0087890625,0,0,0.0087890625,43.2509765625,0)" xlink:href="#z"/><use transform="matrix(0.0087890625,0,0,0.0087890625,53.7451171875,0)" xlink:href="#F"/><use transform="matrix(0.0087890625,0,0,0.0087890625,65.14453125,0)" xlink:href="#z"/><use transform="matrix(0.0087890625,0,0,0.0087890625,75.638671875,0)" xlink:href="#x"/><use transform="matrix(0.0087890625,0,0,0.0087890625,82.4150390625,0)" xlink:href="#G"/><use transform="matrix(0.0087890625,0,0,0.0087890625,91.916015625,0)" xlink:href="#s"/><use transform="matrix(0.0087890625,0,0,0.0087890625,102.708984375,0)" xlink:href="#u"/><use transform="matrix(0.0087890625,0,0,0.0087890625,113.34375,0)" xlink:href="#C"/><use transform="matrix(0.0087890625,0,0,0.0087890625,123.451171875,0)" xlink:href="#y"/><use transform="matrix(0.0087890625,0,0,0.0087890625,127.810546875,0)" xlink:href="#q"/><use transform="matrix(0.0087890625,0,0,0.0087890625,140.2294921875,0)" xlink:href="#r"/><use transform="matrix(0.0087890625,0,0,0.0087890625,150.5126953125,0)" xlink:href="#r"/><use transform="matrix(0.0087890625,0,0,0.0087890625,160.7958984375,0)" xlink:href="#s"/><use transform="matrix(0.0087890625,0,0,0.0087890625,171.5888671875,0)" xlink:href="#t"/><use transform="matrix(0.0087890625,0,0,0.0087890625,182.232421875,0)" xlink:href="#u"/><use transform="matrix(0.0087890625,0,0,0.0087890625,192.8671875,0)" xlink:href="#v"/><use transform="matrix(0.0087890625,0,0,0.0087890625,198.755859375,0)" xlink:href="#w"/><use transform="matrix(0.0087890625,0,0,0.0087890625,205.3212890625,0)" xlink:href="#A"/></g><g id="j"><use transform="matrix(0.0087890625,0,0,0.0087890625,0,0)" xlink:href="#H"/><use transform="matrix(0.0087890625,0,0,0.0087890625,11.77734375,0)" xlink:href="#t"/><use transform="matrix(0.0087890625,0,0,0.0087890625,22.4208984375,0)" xlink:href="#G"/><use transform="matrix(0.0087890625,0,0,0.0087890625,31.921875,0)" xlink:href="#G"/><use transform="matrix(0.0087890625,0,0,0.0087890625,41.4228515625,0)" xlink:href="#I"/><use transform="matrix(0.0087890625,0,0,0.0087890625,45.7822265625,0)" xlink:href="#u"/><use transform="matrix(0.0087890625,0,0,0.0087890625,56.4169921875,0)" xlink:href="#z"/><use transform="matrix(0.0087890625,0,0,0.0087890625,66.9111328125,0)" xlink:href="#G"/><use transform="matrix(0.0087890625,0,0,0.0087890625,76.412109375,0)" xlink:href="#q"/><use transform="matrix(0.0087890625,0,0,0.0087890625,88.8310546875,0)" xlink:href="#r"/><use transform="matrix(0.0087890625,0,0,0.0087890625,99.1142578125,0)" xlink:href="#r"/><use transform="matrix(0.0087890625,0,0,0.0087890625,109.3974609375,0)" xlink:href="#s"/><use transform="matrix(0.0087890625,0,0,0.0087890625,120.1904296875,0)" xlink:href="#t"/><use transform="matrix(0.0087890625,0,0,0.0087890625,130.833984375,0)" xlink:href="#u"/><use transform="matrix(0.0087890625,0,0,0.0087890625,141.46875,0)" xlink:href="#v"/><use transform="matrix(0.0087890625,0,0,0.0087890625,147.357421875,0)" xlink:href="#D"/><use transform="matrix(0.0087890625,0,0,0.0087890625,157.5439453125,0)" xlink:href="#C"/><use transform="matrix(0.0087890625,0,0,0.0087890625,167.6513671875,0)" xlink:href="#r"/><use transform="matrix(0.0087890625,0,0,0.0087890625,177.9345703125,0)" xlink:href="#v"/><use transform="matrix(0.0087890625,0,0,0.0087890625,183.6474609375,0)" xlink:href="#s"/><use transform="matrix(0.0087890625,0,0,0.0087890625,194.4404296875,0)" xlink:href="#x"/><use transform="matrix(0.0087890625,0,0,0.0087890625,201.498046875,0)" xlink:href="#E"/></g><path d="M657 26c-323 0-524-166-541-416h195c15 169 171 246 346 246 202 0 356-106 356-265 5-203-294-238-475-293-239-73-380-191-380-389 0-252 224-419 512-419 294 0 499 171 508 396H992c-17-145-151-228-328-228-193 0-321 102-321 242 0 156 175 211 284 241l149 41c160 44 422 134 422 412 0 244-197 432-541 432" id="J"/><path d="M481 0L54-1118h197c107 314 236 620 325 951 87-331 217-637 324-951h197L670 0H481" id="K"/><path d="M611 442c-248 0-391-105-460-228l146-94c47 65 117 165 314 165 178 0 307-82 307-266v-224h-17C863-141 792-18 576-18c-268 0-472-195-472-546 0-346 197-568 476-568 216 0 288 133 326 193h17v-179h175V29c0 289-215 413-487 413zm-5-620c203 0 314-146 314-390 0-237-108-403-314-403-213 0-319 180-319 403 0 230 109 390 319 390" id="L"/><g id="k"><use transform="matrix(0.0087890625,0,0,0.0087890625,0,0)" xlink:href="#F"/><use transform="matrix(0.0087890625,0,0,0.0087890625,11.3994140625,0)" xlink:href="#z"/><use transform="matrix(0.0087890625,0,0,0.0087890625,21.8935546875,0)" xlink:href="#x"/><use transform="matrix(0.0087890625,0,0,0.0087890625,28.669921875,0)" xlink:href="#G"/><use transform="matrix(0.0087890625,0,0,0.0087890625,38.1708984375,0)" xlink:href="#s"/><use transform="matrix(0.0087890625,0,0,0.0087890625,48.9638671875,0)" xlink:href="#u"/><use transform="matrix(0.0087890625,0,0,0.0087890625,59.5986328125,0)" xlink:href="#C"/><use transform="matrix(0.0087890625,0,0,0.0087890625,69.7060546875,0)" xlink:href="#y"/><use transform="matrix(0.0087890625,0,0,0.0087890625,74.0654296875,0)" xlink:href="#J"/><use transform="matrix(0.0087890625,0,0,0.0087890625,85.6142578125,0)" xlink:href="#C"/><use transform="matrix(0.0087890625,0,0,0.0087890625,95.4580078125,0)" xlink:href="#K"/><use transform="matrix(0.0087890625,0,0,0.0087890625,105.57421875,0)" xlink:href="#I"/><use transform="matrix(0.0087890625,0,0,0.0087890625,109.93359375,0)" xlink:href="#u"/><use transform="matrix(0.0087890625,0,0,0.0087890625,120.568359375,0)" xlink:href="#L"/><use transform="matrix(0.0087890625,0,0,0.0087890625,131.607421875,0)" xlink:href="#G"/><use transform="matrix(0.0087890625,0,0,0.0087890625,141.1083984375,0)" xlink:href="#q"/><use transform="matrix(0.0087890625,0,0,0.0087890625,153.52734375,0)" xlink:href="#r"/><use transform="matrix(0.0087890625,0,0,0.0087890625,163.810546875,0)" xlink:href="#r"/><use transform="matrix(0.0087890625,0,0,0.0087890625,174.09375,0)" xlink:href="#s"/><use transform="matrix(0.0087890625,0,0,0.0087890625,184.88671875,0)" xlink:href="#t"/><use transform="matrix(0.0087890625,0,0,0.0087890625,195.5302734375,0)" xlink:href="#u"/><use transform="matrix(0.0087890625,0,0,0.0087890625,206.1650390625,0)" xlink:href="#v"/></g><path d="M370-1490V0H180v-1490h190" id="M"/><path d="M158 0v-1118h175l1 205c55-151 181-225 313-225 147 0 245 90 285 228 53-141 190-228 352-228 194 0 352 125 352 384V0h-181v-749c0-161-105-225-225-225-151 0-243 103-243 244V0H807v-767c0-124-93-207-219-207-131 0-250 92-250 270V0H158" id="N"/><g id="l"><use transform="matrix(0.0087890625,0,0,0.0087890625,0,0)" xlink:href="#F"/><use transform="matrix(0.0087890625,0,0,0.0087890625,11.3994140625,0)" xlink:href="#z"/><use transform="matrix(0.0087890625,0,0,0.0087890625,21.8935546875,0)" xlink:href="#x"/><use transform="matrix(0.0087890625,0,0,0.0087890625,28.669921875,0)" xlink:href="#G"/><use transform="matrix(0.0087890625,0,0,0.0087890625,38.1708984375,0)" xlink:href="#s"/><use transform="matrix(0.0087890625,0,0,0.0087890625,48.9638671875,0)" xlink:href="#u"/><use transform="matrix(0.0087890625,0,0,0.0087890625,59.5986328125,0)" xlink:href="#C"/><use transform="matrix(0.0087890625,0,0,0.0087890625,69.7060546875,0)" xlink:href="#y"/><use transform="matrix(0.0087890625,0,0,0.0087890625,74.0654296875,0)" xlink:href="#M"/><use transform="matrix(0.0087890625,0,0,0.0087890625,78.8994140625,0)" xlink:href="#u"/><use transform="matrix(0.0087890625,0,0,0.0087890625,89.2705078125,0)" xlink:href="#K"/><use transform="matrix(0.0087890625,0,0,0.0087890625,99.03515625,0)" xlink:href="#z"/><use transform="matrix(0.0087890625,0,0,0.0087890625,109.529296875,0)" xlink:href="#G"/><use transform="matrix(0.0087890625,0,0,0.0087890625,119.0302734375,0)" xlink:href="#v"/><use transform="matrix(0.0087890625,0,0,0.0087890625,124.9189453125,0)" xlink:href="#N"/><use transform="matrix(0.0087890625,0,0,0.0087890625,140.6865234375,0)" xlink:href="#z"/><use transform="matrix(0.0087890625,0,0,0.0087890625,151.1806640625,0)" xlink:href="#u"/><use transform="matrix(0.0087890625,0,0,0.0087890625,161.8154296875,0)" xlink:href="#v"/><use transform="matrix(0.0087890625,0,0,0.0087890625,167.7041015625,0)" xlink:href="#q"/><use transform="matrix(0.0087890625,0,0,0.0087890625,180.123046875,0)" xlink:href="#r"/><use transform="matrix(0.0087890625,0,0,0.0087890625,190.40625,0)" xlink:href="#r"/><use transform="matrix(0.0087890625,0,0,0.0087890625,200.689453125,0)" xlink:href="#s"/><use transform="matrix(0.0087890625,0,0,0.0087890625,211.482421875,0)" xlink:href="#t"/><use transform="matrix(0.0087890625,0,0,0.0087890625,222.1259765625,0)" xlink:href="#u"/><use transform="matrix(0.0087890625,0,0,0.0087890625,232.7607421875,0)" xlink:href="#v"/></g><g id="m"><use transform="matrix(0.0087890625,0,0,0.0087890625,0,0)" xlink:href="#H"/><use transform="matrix(0.0087890625,0,0,0.0087890625,11.77734375,0)" xlink:href="#t"/><use transform="matrix(0.0087890625,0,0,0.0087890625,22.4208984375,0)" xlink:href="#G"/><use transform="matrix(0.0087890625,0,0,0.0087890625,31.921875,0)" xlink:href="#G"/><use transform="matrix(0.0087890625,0,0,0.0087890625,41.4228515625,0)" xlink:href="#I"/><use transform="matrix(0.0087890625,0,0,0.0087890625,45.7822265625,0)" xlink:href="#u"/><use transform="matrix(0.0087890625,0,0,0.0087890625,56.4169921875,0)" xlink:href="#z"/><use transform="matrix(0.0087890625,0,0,0.0087890625,66.9111328125,0)" xlink:href="#G"/><use transform="matrix(0.0087890625,0,0,0.0087890625,76.412109375,0)" xlink:href="#J"/><use transform="matrix(0.0087890625,0,0,0.0087890625,87.9609375,0)" xlink:href="#C"/><use transform="matrix(0.0087890625,0,0,0.0087890625,97.8046875,0)" xlink:href="#K"/><use transform="matrix(0.0087890625,0,0,0.0087890625,107.9208984375,0)" xlink:href="#I"/><use transform="matrix(0.0087890625,0,0,0.0087890625,112.2802734375,0)" xlink:href="#u"/><use transform="matrix(0.0087890625,0,0,0.0087890625,122.9150390625,0)" xlink:href="#L"/><use transform="matrix(0.0087890625,0,0,0.0087890625,133.9541015625,0)" xlink:href="#G"/><use transform="matrix(0.0087890625,0,0,0.0087890625,143.455078125,0)" xlink:href="#q"/><use transform="matrix(0.0087890625,0,0,0.0087890625,155.8740234375,0)" xlink:href="#r"/><use transform="matrix(0.0087890625,0,0,0.0087890625,166.1572265625,0)" xlink:href="#r"/><use transform="matrix(0.0087890625,0,0,0.0087890625,176.4404296875,0)" xlink:href="#s"/><use transform="matrix(0.0087890625,0,0,0.0087890625,187.2333984375,0)" xlink:href="#t"/><use transform="matrix(0.0087890625,0,0,0.0087890625,197.876953125,0)" xlink:href="#u"/><use transform="matrix(0.0087890625,0,0,0.0087890625,208.51171875,0)" xlink:href="#v"/></g><g id="n"><use transform="matrix(0.0087890625,0,0,0.0087890625,0,0)" xlink:href="#H"/><use transform="matrix(0.0087890625,0,0,0.0087890625,11.77734375,0)" xlink:href="#t"/><use transform="matrix(0.0087890625,0,0,0.0087890625,22.4208984375,0)" xlink:href="#G"/><use transform="matrix(0.0087890625,0,0,0.0087890625,31.921875,0)" xlink:href="#G"/><use transform="matrix(0.0087890625,0,0,0.0087890625,41.4228515625,0)" xlink:href="#I"/><use transform="matrix(0.0087890625,0,0,0.0087890625,45.7822265625,0)" xlink:href="#u"/><use transform="matrix(0.0087890625,0,0,0.0087890625,56.4169921875,0)" xlink:href="#z"/><use transform="matrix(0.0087890625,0,0,0.0087890625,66.9111328125,0)" xlink:href="#G"/><use transform="matrix(0.0087890625,0,0,0.0087890625,76.412109375,0)" xlink:href="#M"/><use transform="matrix(0.0087890625,0,0,0.0087890625,81.24609375,0)" xlink:href="#u"/><use transform="matrix(0.0087890625,0,0,0.0087890625,91.6171875,0)" xlink:href="#K"/><use transform="matrix(0.0087890625,0,0,0.0087890625,101.3818359375,0)" xlink:href="#z"/><use transform="matrix(0.0087890625,0,0,0.0087890625,111.8759765625,0)" xlink:href="#G"/><use transform="matrix(0.0087890625,0,0,0.0087890625,121.376953125,0)" xlink:href="#v"/><use transform="matrix(0.0087890625,0,0,0.0087890625,127.265625,0)" xlink:href="#N"/><use transform="matrix(0.0087890625,0,0,0.0087890625,143.033203125,0)" xlink:href="#z"/><use transform="matrix(0.0087890625,0,0,0.0087890625,153.52734375,0)" xlink:href="#u"/><use transform="matrix(0.0087890625,0,0,0.0087890625,164.162109375,0)" xlink:href="#v"/><use transform="matrix(0.0087890625,0,0,0.0087890625,170.05078125,0)" xlink:href="#q"/><use transform="matrix(0.0087890625,0,0,0.0087890625,182.4697265625,0)" xlink:href="#r"/><use transform="matrix(0.0087890625,0,0,0.0087890625,192.7529296875,0)" xlink:href="#r"/><use transform="matrix(0.0087890625,0,0,0.0087890625,203.0361328125,0)" xlink:href="#s"/><use transform="matrix(0.0087890625,0,0,0.0087890625,213.8291015625,0)" xlink:href="#t"/><use transform="matrix(0.0087890625,0,0,0.0087890625,224.47265625,0)" xlink:href="#u"/><use transform="matrix(0.0087890625,0,0,0.0087890625,235.107421875,0)" xlink:href="#v"/></g><g id="o"><use transform="matrix(0.0087890625,0,0,0.0087890625,0,0)" xlink:href="#J"/><use transform="matrix(0.0087890625,0,0,0.0087890625,11.548828125,0)" xlink:href="#C"/><use transform="matrix(0.0087890625,0,0,0.0087890625,21.392578125,0)" xlink:href="#K"/><use transform="matrix(0.0087890625,0,0,0.0087890625,31.5087890625,0)" xlink:href="#I"/><use transform="matrix(0.0087890625,0,0,0.0087890625,35.8681640625,0)" xlink:href="#u"/><use transform="matrix(0.0087890625,0,0,0.0087890625,46.5029296875,0)" xlink:href="#L"/><use transform="matrix(0.0087890625,0,0,0.0087890625,57.5419921875,0)" xlink:href="#G"/><use transform="matrix(0.0087890625,0,0,0.0087890625,67.04296875,0)" xlink:href="#q"/><use transform="matrix(0.0087890625,0,0,0.0087890625,79.4619140625,0)" xlink:href="#r"/><use transform="matrix(0.0087890625,0,0,0.0087890625,89.7451171875,0)" xlink:href="#r"/><use transform="matrix(0.0087890625,0,0,0.0087890625,100.0283203125,0)" xlink:href="#s"/><use transform="matrix(0.0087890625,0,0,0.0087890625,110.8212890625,0)" xlink:href="#t"/><use transform="matrix(0.0087890625,0,0,0.0087890625,121.46484375,0)" xlink:href="#u"/><use transform="matrix(0.0087890625,0,0,0.0087890625,132.099609375,0)" xlink:href="#v"/></g><g id="p"><use transform="matrix(0.0087890625,0,0,0.0087890625,0,0)" xlink:href="#M"/><use transform="matrix(0.0087890625,0,0,0.0087890625,4.833984375,0)" xlink:href="#u"/><use transform="matrix(0.0087890625,0,0,0.0087890625,15.205078125,0)" xlink:href="#K"/><use transform="matrix(0.0087890625,0,0,0.0087890625,24.9697265625,0)" xlink:href="#z"/><use transform="matrix(0.0087890625,0,0,0.0087890625,35.4638671875,0)" xlink:href="#G"/><use transform="matrix(0.0087890625,0,0,0.0087890625,44.96484375,0)" xlink:href="#v"/><use transform="matrix(0.0087890625,0,0,0.0087890625,50.853515625,0)" xlink:href="#N"/><use transform="matrix(0.0087890625,0,0,0.0087890625,66.62109375,0)" xlink:href="#z"/><use transform="matrix(0.0087890625,0,0,0.0087890625,77.115234375,0)" xlink:href="#u"/><use transform="matrix(0.0087890625,0,0,0.0087890625,87.75,0)" xlink:href="#v"/><use transform="matrix(0.0087890625,0,0,0.0087890625,93.638671875,0)" xlink:href="#q"/><use transform="matrix(0.0087890625,0,0,0.0087890625,106.0576171875,0)" xlink:href="#r"/><use transform="matrix(0.0087890625,0,0,0.0087890625,116.3408203125,0)" xlink:href="#r"/><use transform="matrix(0.0087890625,0,0,0.0087890625,126.6240234375,0)" xlink:href="#s"/><use transform="matrix(0.0087890625,0,0,0.0087890625,137.4169921875,0)" xlink:href="#t"/><use transform="matrix(0.0087890625,0,0,0.0087890625,148.060546875,0)" xlink:href="#u"/><use transform="matrix(0.0087890625,0,0,0.0087890625,158.6953125,0)" xlink:href="#v"/></g></defs></g></svg>