<svg xmlns="http://www.w3.org/2000/svg" xmlns:xlink="http://www.w3.org/1999/xlink" xmlns:lucid="lucid" width="1203" height="906"><g transform="translate(-235 -1527)" lucid:page-tab-id="HWEp-vi-RSFO"><path d="M0 0h2353.52v3280H0z" fill="#fff"/><path d="M1020 1640h360v182h-360z" stroke="#000" stroke-width="2" fill="#fff"/><path d="M1020 1677.78h360m-360 59.28h360" stroke="#000" stroke-width="2" fill="none"/><use xlink:href="#a" transform="matrix(1,0,0,1,1028,1648) translate(102.49169921875 17.5478515625)"/><use xlink:href="#b" transform="matrix(1,0,0,1,1028,1648) translate(147.72021484375 17.5478515625)"/><use xlink:href="#c" transform="matrix(1,0,0,1,1032,1745.05859375) translate(0 28.480273437500003)"/><use xlink:href="#d" transform="matrix(1,0,0,1,1032,1745.05859375) translate(16.9716796875 28.480273437500003)"/><use xlink:href="#c" transform="matrix(1,0,0,1,1032,1745.05859375) translate(0 54.6154296875)"/><use xlink:href="#e" transform="matrix(1,0,0,1,1032,1745.05859375) translate(16.9716796875 54.6154296875)"/><path d="M520 1560h320v389H520z" stroke="#000" stroke-width="2" fill="#fff"/><path d="M520 1623.9h320" stroke="#000" stroke-width="2" fill="none"/><use xlink:href="#f" transform="matrix(1,0,0,1,528,1568) translate(93.24072265625 17.480273437500003)"/><use xlink:href="#g" transform="matrix(1,0,0,1,528,1568) translate(100.06982421875 43.6154296875)"/><use xlink:href="#c" transform="matrix(1,0,0,1,532,1631.914453125) translate(0 17.80449218749999)"/><use xlink:href="#h" transform="matrix(1,0,0,1,532,1631.914453125) translate(16.9716796875 17.80449218749999)"/><use xlink:href="#c" transform="matrix(1,0,0,1,532,1631.914453125) translate(0 43.93964843749998)"/><use xlink:href="#i" transform="matrix(1,0,0,1,532,1631.914453125) translate(16.9716796875 43.93964843749998)"/><use xlink:href="#c" transform="matrix(1,0,0,1,532,1631.914453125) translate(0 70.07480468749998)"/><use xlink:href="#j" transform="matrix(1,0,0,1,532,1631.914453125) translate(16.9716796875 70.07480468749998)"/><use xlink:href="#c" transform="matrix(1,0,0,1,532,1631.914453125) translate(0 96.20996093749999)"/><use xlink:href="#k" transform="matrix(1,0,0,1,532,1631.914453125) translate(16.9716796875 96.20996093749999)"/><use xlink:href="#c" transform="matrix(1,0,0,1,532,1631.914453125) translate(0 122.34511718749998)"/><use xlink:href="#l" transform="matrix(1,0,0,1,532,1631.914453125) translate(16.9716796875 122.34511718749998)"/><use xlink:href="#c" transform="matrix(1,0,0,1,532,1631.914453125) translate(0 148.4802734375)"/><use xlink:href="#m" transform="matrix(1,0,0,1,532,1631.914453125) translate(16.9716796875 148.4802734375)"/><use xlink:href="#c" transform="matrix(1,0,0,1,532,1631.914453125) translate(0 174.61542968749998)"/><use xlink:href="#n" transform="matrix(1,0,0,1,532,1631.914453125) translate(16.9716796875 174.61542968749998)"/><use xlink:href="#c" transform="matrix(1,0,0,1,532,1631.914453125) translate(0 200.75058593749998)"/><use xlink:href="#o" transform="matrix(1,0,0,1,532,1631.914453125) translate(16.9716796875 200.75058593749998)"/><use xlink:href="#c" transform="matrix(1,0,0,1,532,1631.914453125) translate(0 226.88574218749997)"/><use xlink:href="#p" transform="matrix(1,0,0,1,532,1631.914453125) translate(16.9716796875 226.88574218749997)"/><use xlink:href="#c" transform="matrix(1,0,0,1,532,1631.914453125) translate(0 253.02089843749997)"/><use xlink:href="#q" transform="matrix(1,0,0,1,532,1631.914453125) translate(16.9716796875 253.02089843749997)"/><use xlink:href="#c" transform="matrix(1,0,0,1,532,1631.914453125) translate(0 279.1560546875)"/><use xlink:href="#r" transform="matrix(1,0,0,1,532,1631.914453125) translate(16.9716796875 279.1560546875)"/><use xlink:href="#s" transform="matrix(1,0,0,1,532,1631.914453125) translate(81.755859375 279.1560546875)"/><use xlink:href="#c" transform="matrix(1,0,0,1,532,1631.914453125) translate(0 305.2912109375)"/><use xlink:href="#t" transform="matrix(1,0,0,1,532,1631.914453125) translate(16.9716796875 305.2912109375)"/><path d="M280 2060h360v313H280z" stroke="#000" stroke-width="2" fill="#fff"/><path d="M280 2097.78h360m-360 59.28h360" stroke="#000" stroke-width="2" fill="none"/><g><use xlink:href="#u" transform="matrix(1,0,0,1,288,2068) translate(133.1259765625 17.5478515625)"/></g><g><use xlink:href="#c" transform="matrix(1,0,0,1,292,2105.779296875) translate(0 28.5478515625)"/><use xlink:href="#v" transform="matrix(1,0,0,1,292,2105.779296875) translate(16.9716796875 28.5478515625)"/><use xlink:href="#w" transform="matrix(1,0,0,1,292,2105.779296875) translate(64.634765625 28.5478515625)"/></g><g><use xlink:href="#c" transform="matrix(1,0,0,1,292,2165.05859375) translate(0 28.642382812500003)"/><use xlink:href="#x" transform="matrix(1,0,0,1,292,2165.05859375) translate(16.9716796875 28.642382812500003)"/><use xlink:href="#c" transform="matrix(1,0,0,1,292,2165.05859375) translate(0 54.7775390625)"/><use xlink:href="#y" transform="matrix(1,0,0,1,292,2165.05859375) translate(16.9716796875 54.7775390625)"/><use xlink:href="#c" transform="matrix(1,0,0,1,292,2165.05859375) translate(0 80.9126953125)"/><use xlink:href="#z" transform="matrix(1,0,0,1,292,2165.05859375) translate(16.9716796875 80.9126953125)"/><use xlink:href="#c" transform="matrix(1,0,0,1,292,2165.05859375) translate(0 107.0478515625)"/><use xlink:href="#A" transform="matrix(1,0,0,1,292,2165.05859375) translate(16.9716796875 107.0478515625)"/><use xlink:href="#c" transform="matrix(1,0,0,1,292,2165.05859375) translate(0 133.1830078125)"/><use xlink:href="#B" transform="matrix(1,0,0,1,292,2165.05859375) translate(16.9716796875 133.1830078125)"/><use xlink:href="#c" transform="matrix(1,0,0,1,292,2165.05859375) translate(0 159.3181640625)"/><use xlink:href="#C" transform="matrix(1,0,0,1,292,2165.05859375) translate(16.9716796875 159.3181640625)"/><use xlink:href="#c" transform="matrix(1,0,0,1,292,2165.05859375) translate(0 185.4533203125)"/><use xlink:href="#D" transform="matrix(1,0,0,1,292,2165.05859375) translate(16.9716796875 185.4533203125)"/></g><path d="M740 2060h360v339H740z" stroke="#000" stroke-width="2" fill="#fff"/><path d="M740 2097.78h360m-360 59.28h360" stroke="#000" stroke-width="2" fill="none"/><g><use xlink:href="#E" transform="matrix(1,0,0,1,748,2068) translate(121.041015625 17.5478515625)"/></g><g><use xlink:href="#c" transform="matrix(1,0,0,1,752,2105.779296875) translate(0 28.5478515625)"/><use xlink:href="#F" transform="matrix(1,0,0,1,752,2105.779296875) translate(16.9716796875 28.5478515625)"/><use xlink:href="#w" transform="matrix(1,0,0,1,752,2105.779296875) translate(104.09765625 28.5478515625)"/></g><g><use xlink:href="#c" transform="matrix(1,0,0,1,752,2165.05859375) translate(0 28.574804687500006)"/><use xlink:href="#G" transform="matrix(1,0,0,1,752,2165.05859375) translate(16.9716796875 28.574804687500006)"/><use xlink:href="#c" transform="matrix(1,0,0,1,752,2165.05859375) translate(0 54.7099609375)"/><use xlink:href="#x" transform="matrix(1,0,0,1,752,2165.05859375) translate(16.9716796875 54.7099609375)"/><use xlink:href="#c" transform="matrix(1,0,0,1,752,2165.05859375) translate(0 80.8451171875)"/><use xlink:href="#y" transform="matrix(1,0,0,1,752,2165.05859375) translate(16.9716796875 80.8451171875)"/><use xlink:href="#c" transform="matrix(1,0,0,1,752,2165.05859375) translate(0 106.9802734375)"/><use xlink:href="#z" transform="matrix(1,0,0,1,752,2165.05859375) translate(16.9716796875 106.9802734375)"/><use xlink:href="#c" transform="matrix(1,0,0,1,752,2165.05859375) translate(0 133.1154296875)"/><use xlink:href="#B" transform="matrix(1,0,0,1,752,2165.05859375) translate(16.9716796875 133.1154296875)"/><use xlink:href="#c" transform="matrix(1,0,0,1,752,2165.05859375) translate(0 159.2505859375)"/><use xlink:href="#H" transform="matrix(1,0,0,1,752,2165.05859375) translate(16.9716796875 159.2505859375)"/><use xlink:href="#c" transform="matrix(1,0,0,1,752,2165.05859375) translate(0 185.3857421875)"/><use xlink:href="#p" transform="matrix(1,0,0,1,752,2165.05859375) translate(16.9716796875 185.3857421875)"/><use xlink:href="#c" transform="matrix(1,0,0,1,752,2165.05859375) translate(0 211.5208984375)"/><use xlink:href="#D" transform="matrix(1,0,0,1,752,2165.05859375) translate(16.9716796875 211.5208984375)"/></g><path d="M1018 1731H842.82" stroke="#333" stroke-width="2" fill="none"/><path d="M1019 1731.97h-1.03v-1.94h1.03z" stroke="#333" stroke-width=".05" fill="#333"/><path d="M860.32 1741L843 1731l17.32-10M460 2058v-13.83m0-13.84v-13.83l.15-1.88.44-1.83.7-1.75 1-1.6 1.2-1.43 1.45-1.23 1.6-1 1.74-.7 1.82-.45 1.88-.15h9.33m9.34 0h18.66m9.34 0h18.66m9.34 0h18.66m9.34 0h18.66m9.34 0h18.66m9.34 0h18.66m9.34 0H668l1.88-.15 1.83-.44 1.75-.7 1.6-1 1.44-1.22 1.2-1.43 1-1.6.7-1.74.45-1.82.15-1.88v-8m0-8v-8" stroke="#333" stroke-width="2" fill="none"/><path d="M460.98 2059h-1.96v-1.03h1.96z" stroke="#333" stroke-width=".05" fill="#333"/><path d="M680 1953.24l4.63 14.26h-9.26z" stroke="#333" stroke-width="2" fill="#333"/><path d="M920 2058v-13.83m0-13.84v-13.83l-.15-1.88-.44-1.83-.7-1.75-1-1.6-1.22-1.43-1.43-1.23-1.6-1-1.74-.7-1.82-.45-1.88-.15h-10.3m-10.27 0h-20.57m-10.3 0H836m-10.3 0h-20.56m-10.28 0H774.3m-10.3 0h-20.57m-10.3 0h-20.56m-10.28 0H692l-1.88-.15-1.83-.44-1.75-.7-1.6-1-1.44-1.22-1.2-1.43-1-1.6-.7-1.74-.45-1.82-.15-1.88v-17.85" stroke="#333" stroke-width="2" fill="none"/><path d="M920.98 2059H919v-1.03H921z" stroke="#333" stroke-width=".05" fill="#333"/><path d="M680 1952l12.5 21.65h-25z" stroke="#333" stroke-width="2" fill="#fff"/><defs><path d="M763 24c-353 0-583-224-583-531v-983h190v968c0 214 149 370 393 370 243 0 391-156 391-370v-968h190v983c0 307-230 531-581 531" id="I"/><path d="M538 24C308 24 148-78 108-271l171-41c32 123 123 178 257 178 156 0 256-77 256-169 0-77-54-128-164-154l-186-44c-203-48-300-148-300-305 0-192 176-326 414-326 230 0 351 112 402 269l-163 42c-31-80-94-158-238-158-133 0-233 69-233 162 0 83 57 129 188 160l169 40c203 48 298 149 298 302 0 196-179 339-441 339" id="J"/><path d="M628 24c-324 0-524-230-524-574 0-343 198-582 503-582 237 0 487 146 487 559v75H286c9 234 145 362 343 362 132 0 231-58 273-172l174 48C1024-91 857 24 628 24zM287-650h624c-17-190-120-322-304-322-192 0-309 151-320 322" id="K"/><path d="M158 0v-1118h174v172h12c41-113 157-188 290-188 26 0 70 2 91 3v181c-11-2-60-10-108-10-161 0-279 109-279 260V0H158" id="L"/><g id="a"><use transform="matrix(0.0087890625,0,0,0.0087890625,0,0)" xlink:href="#I"/><use transform="matrix(0.0087890625,0,0,0.0087890625,13.39453125,0)" xlink:href="#J"/><use transform="matrix(0.0087890625,0,0,0.0087890625,22.8955078125,0)" xlink:href="#K"/><use transform="matrix(0.0087890625,0,0,0.0087890625,33.3896484375,0)" xlink:href="#L"/></g><path d="M218-607c0-325 108-727 258-974h175c-155 315-250 682-250 974 0 265 78 531 250 886H476C306-10 218-315 218-607" id="M"/><path d="M613 24c-304 0-509-231-509-576 0-350 205-580 509-580 216 0 392 114 453 309l-173 49c-33-115-133-197-280-197-223 0-326 196-326 419 0 220 103 415 326 415 150 0 252-85 285-206l172 49C1010-95 832 24 613 24" id="N"/><path d="M613 24c-304 0-509-231-509-576 0-350 205-580 509-580 305 0 511 230 511 580 0 345-206 576-511 576zm0-161c226 0 329-195 329-415 0-222-103-419-329-419-223 0-326 196-326 419 0 220 103 415 326 415" id="O"/><path d="M338-670V0H158v-1118h173l1 207c72-158 192-221 342-221 226 0 378 139 378 422V0H872v-695c0-172-96-275-252-275-161 0-282 109-282 300" id="P"/><path d="M598-1118v154H368v674c0 100 37 144 132 144 23 0 62-6 92-12L629-6c-37 13-88 20-134 20-193 0-307-107-307-290v-688H20v-154h168v-266h180v266h230" id="Q"/><path d="M338-1490V0H158v-1490h180" id="R"/><path d="M96 279C273-86 346-350 346-607c0-292-95-659-250-974h175c150 246 258 650 258 974 0 297-91 602-258 886H96" id="S"/><g id="b"><use transform="matrix(0.0087890625,0,0,0.0087890625,0,0)" xlink:href="#M"/><use transform="matrix(0.0087890625,0,0,0.0087890625,6.36328125,0)" xlink:href="#N"/><use transform="matrix(0.0087890625,0,0,0.0087890625,16.646484375,0)" xlink:href="#O"/><use transform="matrix(0.0087890625,0,0,0.0087890625,27.439453125,0)" xlink:href="#P"/><use transform="matrix(0.0087890625,0,0,0.0087890625,38.07421875,0)" xlink:href="#Q"/><use transform="matrix(0.0087890625,0,0,0.0087890625,43.962890625,0)" xlink:href="#L"/><use transform="matrix(0.0087890625,0,0,0.0087890625,50.4404296875,0)" xlink:href="#O"/><use transform="matrix(0.0087890625,0,0,0.0087890625,61.2333984375,0)" xlink:href="#R"/><use transform="matrix(0.0087890625,0,0,0.0087890625,65.5927734375,0)" xlink:href="#R"/><use transform="matrix(0.0087890625,0,0,0.0087890625,69.9521484375,0)" xlink:href="#K"/><use transform="matrix(0.0087890625,0,0,0.0087890625,80.4462890625,0)" xlink:href="#L"/><use transform="matrix(0.0087890625,0,0,0.0087890625,87.22265625,0)" xlink:href="#S"/></g><path d="M593-100v-404H195v-159h398v-403h169v403h398v159H762v404H593" id="T"/><use transform="matrix(0.0087890625,0,0,0.0087890625,0,0)" xlink:href="#T" id="c"/><path d="M471 26C259 26 90-98 90-318c0-256 228-303 435-329 202-27 287-16 287-108 0-139-79-219-234-219-161 0-248 86-283 164l-173-57c86-203 278-265 451-265 150 0 419 46 419 395V0H815v-152h-12C765-73 660 26 471 26zm31-159c199 0 310-134 310-271v-155c-30 35-226 55-295 64-131 17-246 59-246 186 0 116 97 176 231 176" id="U"/><g id="d"><use transform="matrix(0.0087890625,0,0,0.0087890625,0,0)" xlink:href="#N"/><use transform="matrix(0.0087890625,0,0,0.0087890625,10.283203125,0)" xlink:href="#L"/><use transform="matrix(0.0087890625,0,0,0.0087890625,16.7607421875,0)" xlink:href="#K"/><use transform="matrix(0.0087890625,0,0,0.0087890625,27.4306640625,0)" xlink:href="#U"/><use transform="matrix(0.0087890625,0,0,0.0087890625,37.5380859375,0)" xlink:href="#Q"/><use transform="matrix(0.0087890625,0,0,0.0087890625,43.2509765625,0)" xlink:href="#K"/><use transform="matrix(0.0087890625,0,0,0.0087890625,53.7451171875,0)" xlink:href="#M"/><use transform="matrix(0.0087890625,0,0,0.0087890625,60.310546875,0)" xlink:href="#S"/></g><path d="M537 14c-226 0-379-139-379-422v-710h180v695c0 172 97 275 253 275 160 0 281-109 281-300v-670h181V0H879v-209C806-46 684 14 537 14" id="V"/><path d="M158 418v-1536h174v179h20c37-59 106-193 324-193 279 0 474 222 474 576 0 356-194 580-473 580-213 0-288-135-325-197h-14v591H158zm492-555c209 0 317-186 317-421 0-232-105-413-317-413-206 0-314 166-314 413 0 249 111 421 314 421" id="W"/><path d="M577 24c-279 0-473-224-473-580 0-354 195-576 474-576 218 0 287 134 324 193h14v-551h180V0H922v-173h-20C865-111 790 24 577 24zm27-161c203 0 314-172 314-421 0-247-108-413-314-413-212 0-317 181-317 413 0 235 108 421 317 421" id="X"/><g id="e"><use transform="matrix(0.0087890625,0,0,0.0087890625,0,0)" xlink:href="#V"/><use transform="matrix(0.0087890625,0,0,0.0087890625,10.6435546875,0)" xlink:href="#W"/><use transform="matrix(0.0087890625,0,0,0.0087890625,21.6650390625,0)" xlink:href="#X"/><use transform="matrix(0.0087890625,0,0,0.0087890625,32.6865234375,0)" xlink:href="#U"/><use transform="matrix(0.0087890625,0,0,0.0087890625,42.7939453125,0)" xlink:href="#Q"/><use transform="matrix(0.0087890625,0,0,0.0087890625,48.5068359375,0)" xlink:href="#K"/><use transform="matrix(0.0087890625,0,0,0.0087890625,59.0009765625,0)" xlink:href="#M"/><use transform="matrix(0.0087890625,0,0,0.0087890625,65.56640625,0)" xlink:href="#S"/></g><path d="M166-471v-247l1019-454v289L492-601v13l693 282v287" id="Y"/><path d="M440-1490V0H135v-1490h305" id="Z"/><path d="M428-647V0H128v-1118h283l4 231c63-156 176-245 348-245 232 0 384 159 384 421V0H847v-659c0-139-76-222-202-222-128 0-217 86-217 234" id="aa"/><path d="M683-1118v229H474v562c0 71 29 104 102 104 23 0 73-7 95-13l43 225C647 9 580 16 520 16 296 16 174-96 174-301v-588H20v-229h154v-266h300v266h209" id="ab"/><path d="M633 22C291 22 81-200 81-553c0-345 210-579 537-579 292 0 525 185 525 567v84H378c7 183 109 277 260 277 105 0 184-46 216-132l272 51C1071-99 893 22 633 22zM380-669h474c-15-146-94-237-233-237-143 0-229 99-241 237" id="ac"/><path d="M128 0v-1118h290v195h12c54-169 184-238 367-200v268c-27-8-86-15-130-15-138 0-239 95-239 234V0H128" id="ad"/><path d="M750-1118v229H516V0H217v-889H20v-229h197v-86c0-238 156-356 363-356 94 0 178 20 215 31l-54 226c-25-7-61-15-100-15-123-3-131 84-125 200h234" id="ae"/><path d="M440 22C227 22 68-92 68-313c0-250 202-322 422-343 195-21 271-24 271-105 0-95-63-149-175-149-116 0-187 57-211 129l-275-46c57-194 237-305 487-305 240 0 474 108 474 379V0H777v-155h-10C713-51 605 22 440 22zm85-211c140 0 238-93 238-211v-121c-37 26-156 42-222 51-111 16-185 59-185 149 0 87 70 132 169 132" id="af"/><path d="M120 0v-182l551-686v-8H137v-242h897v199L514-250v8h539V0H120" id="ag"/><path d="M1224-471L205-19v-287l694-281v-14L205-883v-289l1019 454v247" id="ah"/><g id="f"><use transform="matrix(0.0087890625,0,0,0.0087890625,0,0)" xlink:href="#Y"/><use transform="matrix(0.0087890625,0,0,0.0087890625,12.216796875,0)" xlink:href="#Y"/><use transform="matrix(0.0087890625,0,0,0.0087890625,24.43359375,0)" xlink:href="#Z"/><use transform="matrix(0.0087890625,0,0,0.0087890625,29.4873046875,0)" xlink:href="#aa"/><use transform="matrix(0.0087890625,0,0,0.0087890625,40.693359375,0)" xlink:href="#ab"/><use transform="matrix(0.0087890625,0,0,0.0087890625,47.109375,0)" xlink:href="#ac"/><use transform="matrix(0.0087890625,0,0,0.0087890625,57.83203125,0)" xlink:href="#ad"/><use transform="matrix(0.0087890625,0,0,0.0087890625,65.513671875,0)" xlink:href="#ae"/><use transform="matrix(0.0087890625,0,0,0.0087890625,72.3251953125,0)" xlink:href="#af"/><use transform="matrix(0.0087890625,0,0,0.0087890625,82.775390625,0)" xlink:href="#ag"/><use transform="matrix(0.0087890625,0,0,0.0087890625,93.0849609375,0)" xlink:href="#ah"/><use transform="matrix(0.0087890625,0,0,0.0087890625,105.3017578125,0)" xlink:href="#ah"/></g><path d="M750 21c-371 0-615-218-615-544v-967h305v942c0 174 123 299 310 299s309-125 309-299v-942h306v967c0 326-247 544-615 544" id="ai"/><path d="M572 22C302 22 117-98 78-306l279-48c29 105 101 156 224 156 114 0 185-48 185-115 0-118-228-130-337-155-215-49-322-150-322-317 0-215 187-347 470-347 265 0 424 116 466 298l-266 47c-24-76-87-130-196-130-98 0-174 46-174 113 0 56 38 95 144 117l201 40c216 44 320 143 320 302 0 220-207 367-500 367" id="aj"/><path d="M135 0v-1490h591c327 0 492 160 492 383 0 177-115 286-268 320v15c168 8 326 140 326 361 0 236-176 411-512 411H135zm305-251h264c179 0 258-76 258-189 0-125-97-215-250-215H440v404zm0-613h241c131 0 228-74 228-194 0-109-79-183-222-183H440v377" id="ak"/><path d="M513 14c-232 0-385-159-385-421v-711h300v659c0 139 76 222 202 222 127 0 217-86 217-234v-647h301V0H864l-4-232C797-74 683 14 513 14" id="al"/><path d="M128 0v-1118h300V0H128zm150-1264c-91 0-165-68-165-154 0-85 74-154 165-154 90 0 165 69 165 154 0 86-75 154-165 154" id="am"/><path d="M428-1490V0H128v-1490h300" id="an"/><path d="M537 19C279 19 81-185 81-557c0-382 206-575 454-575 190 0 278 113 318 202h10v-560h300V0H868v-179h-15C812-89 719 19 537 19zm92-241c153 0 240-134 240-336 0-203-86-334-240-334-158 0-240 138-240 334 0 197 84 336 240 336" id="ao"/><g id="g"><use transform="matrix(0.0087890625,0,0,0.0087890625,0,0)" xlink:href="#ai"/><use transform="matrix(0.0087890625,0,0,0.0087890625,13.1748046875,0)" xlink:href="#aj"/><use transform="matrix(0.0087890625,0,0,0.0087890625,23.255859375,0)" xlink:href="#ac"/><use transform="matrix(0.0087890625,0,0,0.0087890625,33.978515625,0)" xlink:href="#ad"/><use transform="matrix(0.0087890625,0,0,0.0087890625,41.58984375,0)" xlink:href="#ak"/><use transform="matrix(0.0087890625,0,0,0.0087890625,53.4990234375,0)" xlink:href="#al"/><use transform="matrix(0.0087890625,0,0,0.0087890625,64.705078125,0)" xlink:href="#am"/><use transform="matrix(0.0087890625,0,0,0.0087890625,69.5830078125,0)" xlink:href="#an"/><use transform="matrix(0.0087890625,0,0,0.0087890625,74.4609375,0)" xlink:href="#ao"/><use transform="matrix(0.0087890625,0,0,0.0087890625,85.8076171875,0)" xlink:href="#ac"/><use transform="matrix(0.0087890625,0,0,0.0087890625,96.5302734375,0)" xlink:href="#ad"/></g><path d="M180 0v-1490h224l606 953c40 63 108 177 176 312-27-437-7-821-13-1265h190V0h-226C860-448 622-778 356-1262c27 476 11 792 15 1262H180" id="ap"/><path d="M158 0v-1118h175l1 205c55-151 181-225 313-225 147 0 245 90 285 228 53-141 190-228 352-228 194 0 352 125 352 384V0h-181v-749c0-161-105-225-225-225-151 0-243 103-243 244V0H807v-767c0-124-93-207-219-207-131 0-250 92-250 270V0H158" id="aq"/><g id="h"><use transform="matrix(0.0087890625,0,0,0.0087890625,0,0)" xlink:href="#J"/><use transform="matrix(0.0087890625,0,0,0.0087890625,9.5009765625,0)" xlink:href="#K"/><use transform="matrix(0.0087890625,0,0,0.0087890625,19.9951171875,0)" xlink:href="#Q"/><use transform="matrix(0.0087890625,0,0,0.0087890625,25.8837890625,0)" xlink:href="#ap"/><use transform="matrix(0.0087890625,0,0,0.0087890625,39.4453125,0)" xlink:href="#U"/><use transform="matrix(0.0087890625,0,0,0.0087890625,49.552734375,0)" xlink:href="#aq"/><use transform="matrix(0.0087890625,0,0,0.0087890625,65.3203125,0)" xlink:href="#K"/><use transform="matrix(0.0087890625,0,0,0.0087890625,75.814453125,0)" xlink:href="#M"/><use transform="matrix(0.0087890625,0,0,0.0087890625,82.3798828125,0)" xlink:href="#P"/><use transform="matrix(0.0087890625,0,0,0.0087890625,93.0146484375,0)" xlink:href="#U"/><use transform="matrix(0.0087890625,0,0,0.0087890625,103.1220703125,0)" xlink:href="#aq"/><use transform="matrix(0.0087890625,0,0,0.0087890625,118.8896484375,0)" xlink:href="#K"/><use transform="matrix(0.0087890625,0,0,0.0087890625,129.181640625,0)" xlink:href="#S"/></g><path d="M180 0v-1490h190v1322h690V0H180" id="ar"/><g id="i"><use transform="matrix(0.0087890625,0,0,0.0087890625,0,0)" xlink:href="#J"/><use transform="matrix(0.0087890625,0,0,0.0087890625,9.5009765625,0)" xlink:href="#K"/><use transform="matrix(0.0087890625,0,0,0.0087890625,19.9951171875,0)" xlink:href="#Q"/><use transform="matrix(0.0087890625,0,0,0.0087890625,25.8837890625,0)" xlink:href="#ar"/><use transform="matrix(0.0087890625,0,0,0.0087890625,36.0615234375,0)" xlink:href="#U"/><use transform="matrix(0.0087890625,0,0,0.0087890625,46.1689453125,0)" xlink:href="#J"/><use transform="matrix(0.0087890625,0,0,0.0087890625,55.669921875,0)" xlink:href="#Q"/><use transform="matrix(0.0087890625,0,0,0.0087890625,61.55859375,0)" xlink:href="#P"/><use transform="matrix(0.0087890625,0,0,0.0087890625,72.193359375,0)" xlink:href="#U"/><use transform="matrix(0.0087890625,0,0,0.0087890625,82.30078125,0)" xlink:href="#aq"/><use transform="matrix(0.0087890625,0,0,0.0087890625,98.068359375,0)" xlink:href="#K"/><use transform="matrix(0.0087890625,0,0,0.0087890625,108.5625,0)" xlink:href="#M"/><use transform="matrix(0.0087890625,0,0,0.0087890625,115.1279296875,0)" xlink:href="#R"/><use transform="matrix(0.0087890625,0,0,0.0087890625,119.4873046875,0)" xlink:href="#U"/><use transform="matrix(0.0087890625,0,0,0.0087890625,129.5947265625,0)" xlink:href="#J"/><use transform="matrix(0.0087890625,0,0,0.0087890625,139.095703125,0)" xlink:href="#Q"/><use transform="matrix(0.0087890625,0,0,0.0087890625,144.984375,0)" xlink:href="#P"/><use transform="matrix(0.0087890625,0,0,0.0087890625,155.619140625,0)" xlink:href="#U"/><use transform="matrix(0.0087890625,0,0,0.0087890625,165.7265625,0)" xlink:href="#aq"/><use transform="matrix(0.0087890625,0,0,0.0087890625,181.494140625,0)" xlink:href="#K"/><use transform="matrix(0.0087890625,0,0,0.0087890625,191.7861328125,0)" xlink:href="#S"/></g><path d="M645 0H180v-1490h484c435 0 692 280 692 742 0 466-257 748-711 748zM370-168h263c363 0 539-218 539-580 0-358-176-574-521-574H370v1154" id="as"/><g id="j"><use transform="matrix(0.0087890625,0,0,0.0087890625,0,0)" xlink:href="#J"/><use transform="matrix(0.0087890625,0,0,0.0087890625,9.5009765625,0)" xlink:href="#K"/><use transform="matrix(0.0087890625,0,0,0.0087890625,19.9951171875,0)" xlink:href="#Q"/><use transform="matrix(0.0087890625,0,0,0.0087890625,25.8837890625,0)" xlink:href="#as"/><use transform="matrix(0.0087890625,0,0,0.0087890625,38.8740234375,0)" xlink:href="#O"/><use transform="matrix(0.0087890625,0,0,0.0087890625,49.6669921875,0)" xlink:href="#N"/><use transform="matrix(0.0087890625,0,0,0.0087890625,59.9501953125,0)" xlink:href="#V"/><use transform="matrix(0.0087890625,0,0,0.0087890625,70.59375,0)" xlink:href="#aq"/><use transform="matrix(0.0087890625,0,0,0.0087890625,86.361328125,0)" xlink:href="#K"/><use transform="matrix(0.0087890625,0,0,0.0087890625,96.85546875,0)" xlink:href="#P"/><use transform="matrix(0.0087890625,0,0,0.0087890625,107.490234375,0)" xlink:href="#Q"/><use transform="matrix(0.0087890625,0,0,0.0087890625,113.37890625,0)" xlink:href="#M"/><use transform="matrix(0.0087890625,0,0,0.0087890625,119.7421875,0)" xlink:href="#X"/><use transform="matrix(0.0087890625,0,0,0.0087890625,130.763671875,0)" xlink:href="#O"/><use transform="matrix(0.0087890625,0,0,0.0087890625,141.556640625,0)" xlink:href="#N"/><use transform="matrix(0.0087890625,0,0,0.0087890625,151.83984375,0)" xlink:href="#V"/><use transform="matrix(0.0087890625,0,0,0.0087890625,162.4833984375,0)" xlink:href="#aq"/><use transform="matrix(0.0087890625,0,0,0.0087890625,178.2509765625,0)" xlink:href="#K"/><use transform="matrix(0.0087890625,0,0,0.0087890625,188.7451171875,0)" xlink:href="#P"/><use transform="matrix(0.0087890625,0,0,0.0087890625,199.3798828125,0)" xlink:href="#Q"/><use transform="matrix(0.0087890625,0,0,0.0087890625,205.2685546875,0)" xlink:href="#S"/></g><path d="M180 0v-1490h528c311 0 458 177 458 395 0 191-114 278-244 313v14c139 9 302 137 302 371 0 225-148 397-499 397H180zm190-168h350c232 0 321-102 321-231 0-149-120-277-311-277H370v508zm0-668h328c160 0 286-101 286-255 0-129-87-231-280-231H370v486" id="at"/><path d="M158 0v-1118h180V0H158zm91-1301c-68 0-125-53-125-119s57-119 125-119c69 0 126 53 126 119s-57 119-126 119" id="au"/><path d="M338-670V0H158v-1490h180v566c73-149 190-208 336-208 226 0 379 139 379 422V0H872v-695c0-172-96-275-252-275-161 0-282 109-282 300" id="av"/><path d="M677 24c-213 0-288-135-325-197h-20V0H158v-1490h180v551h14c37-59 106-193 324-193 279 0 474 222 474 576 0 356-194 580-473 580zm-27-161c209 0 317-186 317-421 0-232-105-413-317-413-206 0-314 166-314 413 0 249 111 421 314 421" id="aw"/><g id="k"><use transform="matrix(0.0087890625,0,0,0.0087890625,0,0)" xlink:href="#J"/><use transform="matrix(0.0087890625,0,0,0.0087890625,9.5009765625,0)" xlink:href="#K"/><use transform="matrix(0.0087890625,0,0,0.0087890625,19.9951171875,0)" xlink:href="#Q"/><use transform="matrix(0.0087890625,0,0,0.0087890625,25.8837890625,0)" xlink:href="#at"/><use transform="matrix(0.0087890625,0,0,0.0087890625,37.6611328125,0)" xlink:href="#au"/><use transform="matrix(0.0087890625,0,0,0.0087890625,42.0205078125,0)" xlink:href="#L"/><use transform="matrix(0.0087890625,0,0,0.0087890625,49.078125,0)" xlink:href="#Q"/><use transform="matrix(0.0087890625,0,0,0.0087890625,54.966796875,0)" xlink:href="#av"/><use transform="matrix(0.0087890625,0,0,0.0087890625,65.6103515625,0)" xlink:href="#as"/><use transform="matrix(0.0087890625,0,0,0.0087890625,78.6005859375,0)" xlink:href="#U"/><use transform="matrix(0.0087890625,0,0,0.0087890625,88.7080078125,0)" xlink:href="#Q"/><use transform="matrix(0.0087890625,0,0,0.0087890625,94.4208984375,0)" xlink:href="#K"/><use transform="matrix(0.0087890625,0,0,0.0087890625,104.9150390625,0)" xlink:href="#M"/><use transform="matrix(0.0087890625,0,0,0.0087890625,111.48046875,0)" xlink:href="#aw"/><use transform="matrix(0.0087890625,0,0,0.0087890625,122.501953125,0)" xlink:href="#au"/><use transform="matrix(0.0087890625,0,0,0.0087890625,126.861328125,0)" xlink:href="#L"/><use transform="matrix(0.0087890625,0,0,0.0087890625,133.9189453125,0)" xlink:href="#Q"/><use transform="matrix(0.0087890625,0,0,0.0087890625,139.8076171875,0)" xlink:href="#av"/><use transform="matrix(0.0087890625,0,0,0.0087890625,150.451171875,0)" xlink:href="#as"/><use transform="matrix(0.0087890625,0,0,0.0087890625,163.44140625,0)" xlink:href="#U"/><use transform="matrix(0.0087890625,0,0,0.0087890625,173.548828125,0)" xlink:href="#Q"/><use transform="matrix(0.0087890625,0,0,0.0087890625,179.26171875,0)" xlink:href="#K"/><use transform="matrix(0.0087890625,0,0,0.0087890625,189.5537109375,0)" xlink:href="#S"/></g><path d="M180 0v-1490h908v168H370v486h669v168H370v500h727V0H180" id="ax"/><g id="l"><use transform="matrix(0.0087890625,0,0,0.0087890625,0,0)" xlink:href="#J"/><use transform="matrix(0.0087890625,0,0,0.0087890625,9.5009765625,0)" xlink:href="#K"/><use transform="matrix(0.0087890625,0,0,0.0087890625,19.9951171875,0)" xlink:href="#Q"/><use transform="matrix(0.0087890625,0,0,0.0087890625,25.8837890625,0)" xlink:href="#ax"/><use transform="matrix(0.0087890625,0,0,0.0087890625,36.703125,0)" xlink:href="#aq"/><use transform="matrix(0.0087890625,0,0,0.0087890625,52.470703125,0)" xlink:href="#U"/><use transform="matrix(0.0087890625,0,0,0.0087890625,62.578125,0)" xlink:href="#au"/><use transform="matrix(0.0087890625,0,0,0.0087890625,66.9375,0)" xlink:href="#R"/><use transform="matrix(0.0087890625,0,0,0.0087890625,71.296875,0)" xlink:href="#M"/><use transform="matrix(0.0087890625,0,0,0.0087890625,77.66015625,0)" xlink:href="#K"/><use transform="matrix(0.0087890625,0,0,0.0087890625,88.154296875,0)" xlink:href="#aq"/><use transform="matrix(0.0087890625,0,0,0.0087890625,103.921875,0)" xlink:href="#U"/><use transform="matrix(0.0087890625,0,0,0.0087890625,114.029296875,0)" xlink:href="#au"/><use transform="matrix(0.0087890625,0,0,0.0087890625,118.388671875,0)" xlink:href="#R"/><use transform="matrix(0.0087890625,0,0,0.0087890625,122.748046875,0)" xlink:href="#S"/></g><path d="M180 0v-1490h510c348 0 508 209 508 474 0 266-160 477-507 477H370V0H180zm190-706h312c236 0 327-133 327-310 0-176-91-307-329-307H370v617" id="ay"/><path d="M409 0L70-1118h191c89 329 165 560 243 925 75-353 154-601 240-925h192c85 325 161 564 235 922 77-354 157-598 244-922h191L1267 0h-179c-86-307-176-590-250-913C763-588 675-308 588 0H409" id="az"/><g id="m"><use transform="matrix(0.0087890625,0,0,0.0087890625,0,0)" xlink:href="#J"/><use transform="matrix(0.0087890625,0,0,0.0087890625,9.5009765625,0)" xlink:href="#K"/><use transform="matrix(0.0087890625,0,0,0.0087890625,19.9951171875,0)" xlink:href="#Q"/><use transform="matrix(0.0087890625,0,0,0.0087890625,25.8837890625,0)" xlink:href="#ay"/><use transform="matrix(0.0087890625,0,0,0.0087890625,37.3798828125,0)" xlink:href="#U"/><use transform="matrix(0.0087890625,0,0,0.0087890625,47.4873046875,0)" xlink:href="#J"/><use transform="matrix(0.0087890625,0,0,0.0087890625,56.98828125,0)" xlink:href="#J"/><use transform="matrix(0.0087890625,0,0,0.0087890625,66.4892578125,0)" xlink:href="#az"/><use transform="matrix(0.0087890625,0,0,0.0087890625,80.89453125,0)" xlink:href="#O"/><use transform="matrix(0.0087890625,0,0,0.0087890625,91.6875,0)" xlink:href="#L"/><use transform="matrix(0.0087890625,0,0,0.0087890625,98.1650390625,0)" xlink:href="#X"/><use transform="matrix(0.0087890625,0,0,0.0087890625,109.1865234375,0)" xlink:href="#M"/><use transform="matrix(0.0087890625,0,0,0.0087890625,115.751953125,0)" xlink:href="#W"/><use transform="matrix(0.0087890625,0,0,0.0087890625,126.94921875,0)" xlink:href="#U"/><use transform="matrix(0.0087890625,0,0,0.0087890625,137.056640625,0)" xlink:href="#J"/><use transform="matrix(0.0087890625,0,0,0.0087890625,146.5576171875,0)" xlink:href="#J"/><use transform="matrix(0.0087890625,0,0,0.0087890625,156.05859375,0)" xlink:href="#az"/><use transform="matrix(0.0087890625,0,0,0.0087890625,170.4638671875,0)" xlink:href="#O"/><use transform="matrix(0.0087890625,0,0,0.0087890625,181.2568359375,0)" xlink:href="#L"/><use transform="matrix(0.0087890625,0,0,0.0087890625,187.734375,0)" xlink:href="#X"/><use transform="matrix(0.0087890625,0,0,0.0087890625,198.755859375,0)" xlink:href="#S"/></g><g id="n"><use transform="matrix(0.0087890625,0,0,0.0087890625,0,0)" xlink:href="#J"/><use transform="matrix(0.0087890625,0,0,0.0087890625,9.5009765625,0)" xlink:href="#K"/><use transform="matrix(0.0087890625,0,0,0.0087890625,19.9951171875,0)" xlink:href="#Q"/><use transform="matrix(0.0087890625,0,0,0.0087890625,25.8837890625,0)" xlink:href="#ay"/><use transform="matrix(0.0087890625,0,0,0.0087890625,37.3798828125,0)" xlink:href="#av"/><use transform="matrix(0.0087890625,0,0,0.0087890625,48.0234375,0)" xlink:href="#O"/><use transform="matrix(0.0087890625,0,0,0.0087890625,58.81640625,0)" xlink:href="#P"/><use transform="matrix(0.0087890625,0,0,0.0087890625,69.451171875,0)" xlink:href="#K"/><use transform="matrix(0.0087890625,0,0,0.0087890625,79.9453125,0)" xlink:href="#M"/><use transform="matrix(0.0087890625,0,0,0.0087890625,86.5107421875,0)" xlink:href="#W"/><use transform="matrix(0.0087890625,0,0,0.0087890625,97.5322265625,0)" xlink:href="#av"/><use transform="matrix(0.0087890625,0,0,0.0087890625,108.17578125,0)" xlink:href="#O"/><use transform="matrix(0.0087890625,0,0,0.0087890625,118.96875,0)" xlink:href="#P"/><use transform="matrix(0.0087890625,0,0,0.0087890625,129.603515625,0)" xlink:href="#K"/><use transform="matrix(0.0087890625,0,0,0.0087890625,139.8955078125,0)" xlink:href="#S"/></g><path d="M370-1490V0H180v-1490h190" id="aA"/><path d="M600 0L52-1490h200c166 485 304 806 458 1336 156-533 285-846 449-1336h202L819 0H600" id="aB"/><g id="o"><use transform="matrix(0.0087890625,0,0,0.0087890625,0,0)" xlink:href="#J"/><use transform="matrix(0.0087890625,0,0,0.0087890625,9.5009765625,0)" xlink:href="#K"/><use transform="matrix(0.0087890625,0,0,0.0087890625,19.9951171875,0)" xlink:href="#Q"/><use transform="matrix(0.0087890625,0,0,0.0087890625,25.8837890625,0)" xlink:href="#aA"/><use transform="matrix(0.0087890625,0,0,0.0087890625,30.7177734375,0)" xlink:href="#J"/><use transform="matrix(0.0087890625,0,0,0.0087890625,39.4013671875,0)" xlink:href="#aB"/><use transform="matrix(0.0087890625,0,0,0.0087890625,50.90625,0)" xlink:href="#U"/><use transform="matrix(0.0087890625,0,0,0.0087890625,61.013671875,0)" xlink:href="#R"/><use transform="matrix(0.0087890625,0,0,0.0087890625,65.373046875,0)" xlink:href="#au"/><use transform="matrix(0.0087890625,0,0,0.0087890625,69.732421875,0)" xlink:href="#X"/><use transform="matrix(0.0087890625,0,0,0.0087890625,80.75390625,0)" xlink:href="#U"/><use transform="matrix(0.0087890625,0,0,0.0087890625,90.861328125,0)" xlink:href="#Q"/><use transform="matrix(0.0087890625,0,0,0.0087890625,96.57421875,0)" xlink:href="#K"/><use transform="matrix(0.0087890625,0,0,0.0087890625,107.068359375,0)" xlink:href="#M"/><use transform="matrix(0.0087890625,0,0,0.0087890625,113.6337890625,0)" xlink:href="#au"/><use transform="matrix(0.0087890625,0,0,0.0087890625,117.9931640625,0)" xlink:href="#J"/><use transform="matrix(0.0087890625,0,0,0.0087890625,126.6767578125,0)" xlink:href="#aB"/><use transform="matrix(0.0087890625,0,0,0.0087890625,138.181640625,0)" xlink:href="#U"/><use transform="matrix(0.0087890625,0,0,0.0087890625,148.2890625,0)" xlink:href="#R"/><use transform="matrix(0.0087890625,0,0,0.0087890625,152.6484375,0)" xlink:href="#au"/><use transform="matrix(0.0087890625,0,0,0.0087890625,157.0078125,0)" xlink:href="#X"/><use transform="matrix(0.0087890625,0,0,0.0087890625,168.029296875,0)" xlink:href="#U"/><use transform="matrix(0.0087890625,0,0,0.0087890625,178.13671875,0)" xlink:href="#Q"/><use transform="matrix(0.0087890625,0,0,0.0087890625,183.849609375,0)" xlink:href="#K"/><use transform="matrix(0.0087890625,0,0,0.0087890625,194.1416015625,0)" xlink:href="#S"/></g><path d="M52 0l541-1490h220L1361 0h-200l-149-416H398L254 0H52zm404-582h497c-103-290-145-390-251-756-108 377-145 460-246 756" id="aC"/><g id="p"><use transform="matrix(0.0087890625,0,0,0.0087890625,0,0)" xlink:href="#J"/><use transform="matrix(0.0087890625,0,0,0.0087890625,9.5009765625,0)" xlink:href="#K"/><use transform="matrix(0.0087890625,0,0,0.0087890625,19.9951171875,0)" xlink:href="#Q"/><use transform="matrix(0.0087890625,0,0,0.0087890625,25.8837890625,0)" xlink:href="#aC"/><use transform="matrix(0.0087890625,0,0,0.0087890625,38.302734375,0)" xlink:href="#X"/><use transform="matrix(0.0087890625,0,0,0.0087890625,49.32421875,0)" xlink:href="#X"/><use transform="matrix(0.0087890625,0,0,0.0087890625,60.345703125,0)" xlink:href="#L"/><use transform="matrix(0.0087890625,0,0,0.0087890625,66.8232421875,0)" xlink:href="#K"/><use transform="matrix(0.0087890625,0,0,0.0087890625,77.3173828125,0)" xlink:href="#J"/><use transform="matrix(0.0087890625,0,0,0.0087890625,86.818359375,0)" xlink:href="#J"/><use transform="matrix(0.0087890625,0,0,0.0087890625,96.3193359375,0)" xlink:href="#M"/><use transform="matrix(0.0087890625,0,0,0.0087890625,102.884765625,0)" xlink:href="#U"/><use transform="matrix(0.0087890625,0,0,0.0087890625,112.9921875,0)" xlink:href="#X"/><use transform="matrix(0.0087890625,0,0,0.0087890625,124.013671875,0)" xlink:href="#X"/><use transform="matrix(0.0087890625,0,0,0.0087890625,135.03515625,0)" xlink:href="#L"/><use transform="matrix(0.0087890625,0,0,0.0087890625,141.5126953125,0)" xlink:href="#K"/><use transform="matrix(0.0087890625,0,0,0.0087890625,152.0068359375,0)" xlink:href="#J"/><use transform="matrix(0.0087890625,0,0,0.0087890625,161.5078125,0)" xlink:href="#J"/><use transform="matrix(0.0087890625,0,0,0.0087890625,171.0087890625,0)" xlink:href="#S"/></g><path d="M180 0v-1490h510c348 0 508 194 508 460 0 198-88 351-276 417L1256 0h-220L726-579c-117 2-238 0-356 1V0H180zm190-747h312c235 0 327-108 327-283 0-177-92-293-329-293H370v576" id="aD"/><g id="q"><use transform="matrix(0.0087890625,0,0,0.0087890625,0,0)" xlink:href="#J"/><use transform="matrix(0.0087890625,0,0,0.0087890625,9.5009765625,0)" xlink:href="#K"/><use transform="matrix(0.0087890625,0,0,0.0087890625,19.9951171875,0)" xlink:href="#Q"/><use transform="matrix(0.0087890625,0,0,0.0087890625,25.8837890625,0)" xlink:href="#aD"/><use transform="matrix(0.0087890625,0,0,0.0087890625,37.2041015625,0)" xlink:href="#O"/><use transform="matrix(0.0087890625,0,0,0.0087890625,47.9970703125,0)" xlink:href="#R"/><use transform="matrix(0.0087890625,0,0,0.0087890625,52.3564453125,0)" xlink:href="#K"/><use transform="matrix(0.0087890625,0,0,0.0087890625,62.8505859375,0)" xlink:href="#M"/><use transform="matrix(0.0087890625,0,0,0.0087890625,69.416015625,0)" xlink:href="#L"/><use transform="matrix(0.0087890625,0,0,0.0087890625,75.8935546875,0)" xlink:href="#O"/><use transform="matrix(0.0087890625,0,0,0.0087890625,86.6865234375,0)" xlink:href="#R"/><use transform="matrix(0.0087890625,0,0,0.0087890625,91.0458984375,0)" xlink:href="#K"/><use transform="matrix(0.0087890625,0,0,0.0087890625,101.337890625,0)" xlink:href="#S"/></g><path d="M295 13c-75 0-135-60-135-135s60-135 135-135 135 60 135 135S370 13 295 13zm0-809c-75 0-135-60-135-135s60-135 135-135 135 60 135 135-60 135-135 135" id="aE"/><g id="r"><use transform="matrix(0.0087890625,0,0,0.0087890625,0,0)" xlink:href="#aw"/><use transform="matrix(0.0087890625,0,0,0.0087890625,11.021484375,0)" xlink:href="#V"/><use transform="matrix(0.0087890625,0,0,0.0087890625,21.6650390625,0)" xlink:href="#au"/><use transform="matrix(0.0087890625,0,0,0.0087890625,26.0244140625,0)" xlink:href="#R"/><use transform="matrix(0.0087890625,0,0,0.0087890625,30.3837890625,0)" xlink:href="#X"/><use transform="matrix(0.0087890625,0,0,0.0087890625,41.4052734375,0)" xlink:href="#M"/><use transform="matrix(0.0087890625,0,0,0.0087890625,47.970703125,0)" xlink:href="#S"/><use transform="matrix(0.0087890625,0,0,0.0087890625,54.5361328125,0)" xlink:href="#aE"/></g><g id="s"><use transform="matrix(0.0087890625,0,0,0.0087890625,0,0)" xlink:href="#I"/><use transform="matrix(0.0087890625,0,0,0.0087890625,13.39453125,0)" xlink:href="#J"/><use transform="matrix(0.0087890625,0,0,0.0087890625,22.8955078125,0)" xlink:href="#K"/><use transform="matrix(0.0087890625,0,0,0.0087890625,33.3896484375,0)" xlink:href="#L"/></g><path d="M678-1118v154H420V0H240v-964H20v-154h220v-149c0-194 155-293 318-293 85 0 141 18 168 30l-50 154c-19-6-47-17-97-17-111 0-159 58-159 166v109h258" id="aF"/><path d="M65 0l393-574-370-544h210c88 136 192 297 267 435 67-142 176-302 264-435h206L661-564 1053 0H844c-94-144-206-310-287-458C484-308 366-142 273 0H65" id="aG"/><path d="M611 442c-248 0-391-105-460-228l146-94c47 65 117 165 314 165 178 0 307-82 307-266v-224h-17C863-141 792-18 576-18c-268 0-472-195-472-546 0-346 197-568 476-568 216 0 288 133 326 193h17v-179h175V29c0 289-215 413-487 413zm-5-620c203 0 314-146 314-390 0-237-108-403-314-403-213 0-319 180-319 403 0 230 109 390 319 390" id="aH"/><g id="t"><use transform="matrix(0.0087890625,0,0,0.0087890625,0,0)" xlink:href="#aF"/><use transform="matrix(0.0087890625,0,0,0.0087890625,6.662109375,0)" xlink:href="#L"/><use transform="matrix(0.0087890625,0,0,0.0087890625,13.1396484375,0)" xlink:href="#O"/><use transform="matrix(0.0087890625,0,0,0.0087890625,23.9326171875,0)" xlink:href="#aq"/><use transform="matrix(0.0087890625,0,0,0.0087890625,39.7001953125,0)" xlink:href="#ax"/><use transform="matrix(0.0087890625,0,0,0.0087890625,50.51953125,0)" xlink:href="#aG"/><use transform="matrix(0.0087890625,0,0,0.0087890625,60.345703125,0)" xlink:href="#au"/><use transform="matrix(0.0087890625,0,0,0.0087890625,64.705078125,0)" xlink:href="#J"/><use transform="matrix(0.0087890625,0,0,0.0087890625,74.2060546875,0)" xlink:href="#Q"/><use transform="matrix(0.0087890625,0,0,0.0087890625,80.0947265625,0)" xlink:href="#au"/><use transform="matrix(0.0087890625,0,0,0.0087890625,84.4541015625,0)" xlink:href="#P"/><use transform="matrix(0.0087890625,0,0,0.0087890625,95.0888671875,0)" xlink:href="#aH"/><use transform="matrix(0.0087890625,0,0,0.0087890625,106.1279296875,0)" xlink:href="#M"/><use transform="matrix(0.0087890625,0,0,0.0087890625,112.693359375,0)" xlink:href="#V"/><use transform="matrix(0.0087890625,0,0,0.0087890625,123.3369140625,0)" xlink:href="#J"/><use transform="matrix(0.0087890625,0,0,0.0087890625,132.837890625,0)" xlink:href="#K"/><use transform="matrix(0.0087890625,0,0,0.0087890625,143.33203125,0)" xlink:href="#L"/><use transform="matrix(0.0087890625,0,0,0.0087890625,150.1083984375,0)" xlink:href="#S"/><use transform="matrix(0.0087890625,0,0,0.0087890625,156.673828125,0)" xlink:href="#aE"/></g><g id="u"><use transform="matrix(0.0087890625,0,0,0.0087890625,0,0)" xlink:href="#ay"/><use transform="matrix(0.0087890625,0,0,0.0087890625,11.3994140625,0)" xlink:href="#O"/><use transform="matrix(0.0087890625,0,0,0.0087890625,22.1923828125,0)" xlink:href="#J"/><use transform="matrix(0.0087890625,0,0,0.0087890625,31.693359375,0)" xlink:href="#Q"/><use transform="matrix(0.0087890625,0,0,0.0087890625,37.58203125,0)" xlink:href="#I"/><use transform="matrix(0.0087890625,0,0,0.0087890625,50.9765625,0)" xlink:href="#J"/><use transform="matrix(0.0087890625,0,0,0.0087890625,60.4775390625,0)" xlink:href="#K"/><use transform="matrix(0.0087890625,0,0,0.0087890625,70.9716796875,0)" xlink:href="#L"/></g><g id="v"><use transform="matrix(0.0087890625,0,0,0.0087890625,0,0)" xlink:href="#V"/><use transform="matrix(0.0087890625,0,0,0.0087890625,10.6435546875,0)" xlink:href="#J"/><use transform="matrix(0.0087890625,0,0,0.0087890625,20.14453125,0)" xlink:href="#K"/><use transform="matrix(0.0087890625,0,0,0.0087890625,30.638671875,0)" xlink:href="#L"/><use transform="matrix(0.0087890625,0,0,0.0087890625,37.4150390625,0)" xlink:href="#aE"/></g><g id="w"><use transform="matrix(0.0087890625,0,0,0.0087890625,0,0)" xlink:href="#I"/><use transform="matrix(0.0087890625,0,0,0.0087890625,13.39453125,0)" xlink:href="#J"/><use transform="matrix(0.0087890625,0,0,0.0087890625,22.8955078125,0)" xlink:href="#K"/><use transform="matrix(0.0087890625,0,0,0.0087890625,33.3896484375,0)" xlink:href="#L"/></g><g id="x"><use transform="matrix(0.0087890625,0,0,0.0087890625,0,0)" xlink:href="#J"/><use transform="matrix(0.0087890625,0,0,0.0087890625,9.5009765625,0)" xlink:href="#K"/><use transform="matrix(0.0087890625,0,0,0.0087890625,19.9951171875,0)" xlink:href="#Q"/><use transform="matrix(0.0087890625,0,0,0.0087890625,25.8837890625,0)" xlink:href="#ap"/><use transform="matrix(0.0087890625,0,0,0.0087890625,39.4453125,0)" xlink:href="#U"/><use transform="matrix(0.0087890625,0,0,0.0087890625,49.552734375,0)" xlink:href="#aq"/><use transform="matrix(0.0087890625,0,0,0.0087890625,65.3203125,0)" xlink:href="#K"/><use transform="matrix(0.0087890625,0,0,0.0087890625,75.814453125,0)" xlink:href="#M"/><use transform="matrix(0.0087890625,0,0,0.0087890625,82.3798828125,0)" xlink:href="#P"/><use transform="matrix(0.0087890625,0,0,0.0087890625,93.0146484375,0)" xlink:href="#U"/><use transform="matrix(0.0087890625,0,0,0.0087890625,103.1220703125,0)" xlink:href="#aq"/><use transform="matrix(0.0087890625,0,0,0.0087890625,118.8896484375,0)" xlink:href="#K"/><use transform="matrix(0.0087890625,0,0,0.0087890625,129.181640625,0)" xlink:href="#S"/></g><g id="y"><use transform="matrix(0.0087890625,0,0,0.0087890625,0,0)" xlink:href="#J"/><use transform="matrix(0.0087890625,0,0,0.0087890625,9.5009765625,0)" xlink:href="#K"/><use transform="matrix(0.0087890625,0,0,0.0087890625,19.9951171875,0)" xlink:href="#Q"/><use transform="matrix(0.0087890625,0,0,0.0087890625,25.8837890625,0)" xlink:href="#ar"/><use transform="matrix(0.0087890625,0,0,0.0087890625,36.0615234375,0)" xlink:href="#U"/><use transform="matrix(0.0087890625,0,0,0.0087890625,46.1689453125,0)" xlink:href="#J"/><use transform="matrix(0.0087890625,0,0,0.0087890625,55.669921875,0)" xlink:href="#Q"/><use transform="matrix(0.0087890625,0,0,0.0087890625,61.55859375,0)" xlink:href="#P"/><use transform="matrix(0.0087890625,0,0,0.0087890625,72.193359375,0)" xlink:href="#U"/><use transform="matrix(0.0087890625,0,0,0.0087890625,82.30078125,0)" xlink:href="#aq"/><use transform="matrix(0.0087890625,0,0,0.0087890625,98.068359375,0)" xlink:href="#K"/><use transform="matrix(0.0087890625,0,0,0.0087890625,108.5625,0)" xlink:href="#M"/><use transform="matrix(0.0087890625,0,0,0.0087890625,115.1279296875,0)" xlink:href="#R"/><use transform="matrix(0.0087890625,0,0,0.0087890625,119.4873046875,0)" xlink:href="#U"/><use transform="matrix(0.0087890625,0,0,0.0087890625,129.5947265625,0)" xlink:href="#J"/><use transform="matrix(0.0087890625,0,0,0.0087890625,139.095703125,0)" xlink:href="#Q"/><use transform="matrix(0.0087890625,0,0,0.0087890625,144.984375,0)" xlink:href="#P"/><use transform="matrix(0.0087890625,0,0,0.0087890625,155.619140625,0)" xlink:href="#U"/><use transform="matrix(0.0087890625,0,0,0.0087890625,165.7265625,0)" xlink:href="#aq"/><use transform="matrix(0.0087890625,0,0,0.0087890625,181.494140625,0)" xlink:href="#K"/><use transform="matrix(0.0087890625,0,0,0.0087890625,191.7861328125,0)" xlink:href="#S"/></g><g id="z"><use transform="matrix(0.0087890625,0,0,0.0087890625,0,0)" xlink:href="#J"/><use transform="matrix(0.0087890625,0,0,0.0087890625,9.5009765625,0)" xlink:href="#K"/><use transform="matrix(0.0087890625,0,0,0.0087890625,19.9951171875,0)" xlink:href="#Q"/><use transform="matrix(0.0087890625,0,0,0.0087890625,25.8837890625,0)" xlink:href="#as"/><use transform="matrix(0.0087890625,0,0,0.0087890625,38.8740234375,0)" xlink:href="#O"/><use transform="matrix(0.0087890625,0,0,0.0087890625,49.6669921875,0)" xlink:href="#N"/><use transform="matrix(0.0087890625,0,0,0.0087890625,59.9501953125,0)" xlink:href="#V"/><use transform="matrix(0.0087890625,0,0,0.0087890625,70.59375,0)" xlink:href="#aq"/><use transform="matrix(0.0087890625,0,0,0.0087890625,86.361328125,0)" xlink:href="#K"/><use transform="matrix(0.0087890625,0,0,0.0087890625,96.85546875,0)" xlink:href="#P"/><use transform="matrix(0.0087890625,0,0,0.0087890625,107.490234375,0)" xlink:href="#Q"/><use transform="matrix(0.0087890625,0,0,0.0087890625,113.37890625,0)" xlink:href="#M"/><use transform="matrix(0.0087890625,0,0,0.0087890625,119.7421875,0)" xlink:href="#X"/><use transform="matrix(0.0087890625,0,0,0.0087890625,130.763671875,0)" xlink:href="#O"/><use transform="matrix(0.0087890625,0,0,0.0087890625,141.556640625,0)" xlink:href="#N"/><use transform="matrix(0.0087890625,0,0,0.0087890625,151.83984375,0)" xlink:href="#V"/><use transform="matrix(0.0087890625,0,0,0.0087890625,162.4833984375,0)" xlink:href="#aq"/><use transform="matrix(0.0087890625,0,0,0.0087890625,178.2509765625,0)" xlink:href="#K"/><use transform="matrix(0.0087890625,0,0,0.0087890625,188.7451171875,0)" xlink:href="#P"/><use transform="matrix(0.0087890625,0,0,0.0087890625,199.3798828125,0)" xlink:href="#Q"/><use transform="matrix(0.0087890625,0,0,0.0087890625,205.2685546875,0)" xlink:href="#S"/></g><path d="M934 0v166H0V0h934" id="aI"/><g id="A"><use transform="matrix(0.0087890625,0,0,0.0087890625,0,0)" xlink:href="#J"/><use transform="matrix(0.0087890625,0,0,0.0087890625,9.5009765625,0)" xlink:href="#K"/><use transform="matrix(0.0087890625,0,0,0.0087890625,19.9951171875,0)" xlink:href="#Q"/><use transform="matrix(0.0087890625,0,0,0.0087890625,25.8837890625,0)" xlink:href="#at"/><use transform="matrix(0.0087890625,0,0,0.0087890625,37.6611328125,0)" xlink:href="#au"/><use transform="matrix(0.0087890625,0,0,0.0087890625,42.0205078125,0)" xlink:href="#L"/><use transform="matrix(0.0087890625,0,0,0.0087890625,49.078125,0)" xlink:href="#Q"/><use transform="matrix(0.0087890625,0,0,0.0087890625,54.966796875,0)" xlink:href="#av"/><use transform="matrix(0.0087890625,0,0,0.0087890625,65.6103515625,0)" xlink:href="#as"/><use transform="matrix(0.0087890625,0,0,0.0087890625,78.6005859375,0)" xlink:href="#U"/><use transform="matrix(0.0087890625,0,0,0.0087890625,88.7080078125,0)" xlink:href="#Q"/><use transform="matrix(0.0087890625,0,0,0.0087890625,94.4208984375,0)" xlink:href="#K"/><use transform="matrix(0.0087890625,0,0,0.0087890625,104.9150390625,0)" xlink:href="#M"/><use transform="matrix(0.0087890625,0,0,0.0087890625,111.48046875,0)" xlink:href="#aw"/><use transform="matrix(0.0087890625,0,0,0.0087890625,122.501953125,0)" xlink:href="#au"/><use transform="matrix(0.0087890625,0,0,0.0087890625,126.861328125,0)" xlink:href="#L"/><use transform="matrix(0.0087890625,0,0,0.0087890625,133.9189453125,0)" xlink:href="#Q"/><use transform="matrix(0.0087890625,0,0,0.0087890625,139.8076171875,0)" xlink:href="#av"/><use transform="matrix(0.0087890625,0,0,0.0087890625,150.451171875,0)" xlink:href="#aI"/><use transform="matrix(0.0087890625,0,0,0.0087890625,158.66015625,0)" xlink:href="#X"/><use transform="matrix(0.0087890625,0,0,0.0087890625,169.681640625,0)" xlink:href="#U"/><use transform="matrix(0.0087890625,0,0,0.0087890625,179.7890625,0)" xlink:href="#Q"/><use transform="matrix(0.0087890625,0,0,0.0087890625,185.501953125,0)" xlink:href="#K"/><use transform="matrix(0.0087890625,0,0,0.0087890625,195.7939453125,0)" xlink:href="#S"/></g><g id="B"><use transform="matrix(0.0087890625,0,0,0.0087890625,0,0)" xlink:href="#J"/><use transform="matrix(0.0087890625,0,0,0.0087890625,9.5009765625,0)" xlink:href="#K"/><use transform="matrix(0.0087890625,0,0,0.0087890625,19.9951171875,0)" xlink:href="#Q"/><use transform="matrix(0.0087890625,0,0,0.0087890625,25.8837890625,0)" xlink:href="#ax"/><use transform="matrix(0.0087890625,0,0,0.0087890625,36.703125,0)" xlink:href="#aq"/><use transform="matrix(0.0087890625,0,0,0.0087890625,52.470703125,0)" xlink:href="#U"/><use transform="matrix(0.0087890625,0,0,0.0087890625,62.578125,0)" xlink:href="#au"/><use transform="matrix(0.0087890625,0,0,0.0087890625,66.9375,0)" xlink:href="#R"/><use transform="matrix(0.0087890625,0,0,0.0087890625,71.296875,0)" xlink:href="#M"/><use transform="matrix(0.0087890625,0,0,0.0087890625,77.66015625,0)" xlink:href="#K"/><use transform="matrix(0.0087890625,0,0,0.0087890625,88.154296875,0)" xlink:href="#aq"/><use transform="matrix(0.0087890625,0,0,0.0087890625,103.921875,0)" xlink:href="#U"/><use transform="matrix(0.0087890625,0,0,0.0087890625,114.029296875,0)" xlink:href="#au"/><use transform="matrix(0.0087890625,0,0,0.0087890625,118.388671875,0)" xlink:href="#R"/><use transform="matrix(0.0087890625,0,0,0.0087890625,122.748046875,0)" xlink:href="#S"/></g><g id="C"><use transform="matrix(0.0087890625,0,0,0.0087890625,0,0)" xlink:href="#J"/><use transform="matrix(0.0087890625,0,0,0.0087890625,9.5009765625,0)" xlink:href="#K"/><use transform="matrix(0.0087890625,0,0,0.0087890625,19.9951171875,0)" xlink:href="#Q"/><use transform="matrix(0.0087890625,0,0,0.0087890625,25.8837890625,0)" xlink:href="#ay"/><use transform="matrix(0.0087890625,0,0,0.0087890625,37.3798828125,0)" xlink:href="#U"/><use transform="matrix(0.0087890625,0,0,0.0087890625,47.4873046875,0)" xlink:href="#J"/><use transform="matrix(0.0087890625,0,0,0.0087890625,56.98828125,0)" xlink:href="#J"/><use transform="matrix(0.0087890625,0,0,0.0087890625,66.4892578125,0)" xlink:href="#az"/><use transform="matrix(0.0087890625,0,0,0.0087890625,80.89453125,0)" xlink:href="#O"/><use transform="matrix(0.0087890625,0,0,0.0087890625,91.6875,0)" xlink:href="#L"/><use transform="matrix(0.0087890625,0,0,0.0087890625,98.1650390625,0)" xlink:href="#X"/><use transform="matrix(0.0087890625,0,0,0.0087890625,109.1865234375,0)" xlink:href="#M"/><use transform="matrix(0.0087890625,0,0,0.0087890625,115.751953125,0)" xlink:href="#P"/><use transform="matrix(0.0087890625,0,0,0.0087890625,126.38671875,0)" xlink:href="#K"/><use transform="matrix(0.0087890625,0,0,0.0087890625,136.5556640625,0)" xlink:href="#az"/><use transform="matrix(0.0087890625,0,0,0.0087890625,151.2861328125,0)" xlink:href="#ay"/><use transform="matrix(0.0087890625,0,0,0.0087890625,162.7822265625,0)" xlink:href="#U"/><use transform="matrix(0.0087890625,0,0,0.0087890625,172.8896484375,0)" xlink:href="#J"/><use transform="matrix(0.0087890625,0,0,0.0087890625,182.390625,0)" xlink:href="#J"/><use transform="matrix(0.0087890625,0,0,0.0087890625,191.8916015625,0)" xlink:href="#az"/><use transform="matrix(0.0087890625,0,0,0.0087890625,206.296875,0)" xlink:href="#O"/><use transform="matrix(0.0087890625,0,0,0.0087890625,217.08984375,0)" xlink:href="#L"/><use transform="matrix(0.0087890625,0,0,0.0087890625,223.5673828125,0)" xlink:href="#X"/><use transform="matrix(0.0087890625,0,0,0.0087890625,234.5888671875,0)" xlink:href="#S"/></g><path d="M128 359l88-567h206L266 359H128zM323-796c-75 0-135-60-135-135s60-135 135-135 135 60 135 135-60 135-135 135" id="aJ"/><g id="D"><use transform="matrix(0.0087890625,0,0,0.0087890625,0,0)" xlink:href="#aw"/><use transform="matrix(0.0087890625,0,0,0.0087890625,11.021484375,0)" xlink:href="#V"/><use transform="matrix(0.0087890625,0,0,0.0087890625,21.6650390625,0)" xlink:href="#au"/><use transform="matrix(0.0087890625,0,0,0.0087890625,26.0244140625,0)" xlink:href="#R"/><use transform="matrix(0.0087890625,0,0,0.0087890625,30.3837890625,0)" xlink:href="#X"/><use transform="matrix(0.0087890625,0,0,0.0087890625,41.4052734375,0)" xlink:href="#M"/><use transform="matrix(0.0087890625,0,0,0.0087890625,47.970703125,0)" xlink:href="#S"/><use transform="matrix(0.0087890625,0,0,0.0087890625,54.5361328125,0)" xlink:href="#aJ"/></g><g id="E"><use transform="matrix(0.0087890625,0,0,0.0087890625,0,0)" xlink:href="#I"/><use transform="matrix(0.0087890625,0,0,0.0087890625,13.39453125,0)" xlink:href="#W"/><use transform="matrix(0.0087890625,0,0,0.0087890625,24.416015625,0)" xlink:href="#X"/><use transform="matrix(0.0087890625,0,0,0.0087890625,35.4375,0)" xlink:href="#U"/><use transform="matrix(0.0087890625,0,0,0.0087890625,45.544921875,0)" xlink:href="#Q"/><use transform="matrix(0.0087890625,0,0,0.0087890625,51.2578125,0)" xlink:href="#K"/><use transform="matrix(0.0087890625,0,0,0.0087890625,61.751953125,0)" xlink:href="#I"/><use transform="matrix(0.0087890625,0,0,0.0087890625,75.146484375,0)" xlink:href="#J"/><use transform="matrix(0.0087890625,0,0,0.0087890625,84.6474609375,0)" xlink:href="#K"/><use transform="matrix(0.0087890625,0,0,0.0087890625,95.1416015625,0)" xlink:href="#L"/></g><g id="F"><use transform="matrix(0.0087890625,0,0,0.0087890625,0,0)" xlink:href="#V"/><use transform="matrix(0.0087890625,0,0,0.0087890625,10.6435546875,0)" xlink:href="#J"/><use transform="matrix(0.0087890625,0,0,0.0087890625,20.14453125,0)" xlink:href="#K"/><use transform="matrix(0.0087890625,0,0,0.0087890625,30.638671875,0)" xlink:href="#L"/><use transform="matrix(0.0087890625,0,0,0.0087890625,37.6962890625,0)" xlink:href="#as"/><use transform="matrix(0.0087890625,0,0,0.0087890625,50.6865234375,0)" xlink:href="#U"/><use transform="matrix(0.0087890625,0,0,0.0087890625,60.7939453125,0)" xlink:href="#Q"/><use transform="matrix(0.0087890625,0,0,0.0087890625,66.7705078125,0)" xlink:href="#U"/><use transform="matrix(0.0087890625,0,0,0.0087890625,76.8779296875,0)" xlink:href="#aE"/></g><g id="G"><use transform="matrix(0.0087890625,0,0,0.0087890625,0,0)" xlink:href="#aF"/><use transform="matrix(0.0087890625,0,0,0.0087890625,6.662109375,0)" xlink:href="#L"/><use transform="matrix(0.0087890625,0,0,0.0087890625,13.1396484375,0)" xlink:href="#O"/><use transform="matrix(0.0087890625,0,0,0.0087890625,23.9326171875,0)" xlink:href="#aq"/><use transform="matrix(0.0087890625,0,0,0.0087890625,39.7001953125,0)" xlink:href="#ax"/><use transform="matrix(0.0087890625,0,0,0.0087890625,50.51953125,0)" xlink:href="#aG"/><use transform="matrix(0.0087890625,0,0,0.0087890625,60.345703125,0)" xlink:href="#au"/><use transform="matrix(0.0087890625,0,0,0.0087890625,64.705078125,0)" xlink:href="#J"/><use transform="matrix(0.0087890625,0,0,0.0087890625,74.2060546875,0)" xlink:href="#Q"/><use transform="matrix(0.0087890625,0,0,0.0087890625,80.0947265625,0)" xlink:href="#au"/><use transform="matrix(0.0087890625,0,0,0.0087890625,84.4541015625,0)" xlink:href="#P"/><use transform="matrix(0.0087890625,0,0,0.0087890625,95.0888671875,0)" xlink:href="#aH"/><use transform="matrix(0.0087890625,0,0,0.0087890625,106.1279296875,0)" xlink:href="#M"/><use transform="matrix(0.0087890625,0,0,0.0087890625,112.4912109375,0)" xlink:href="#K"/><use transform="matrix(0.0087890625,0,0,0.0087890625,122.5810546875,0)" xlink:href="#aG"/><use transform="matrix(0.0087890625,0,0,0.0087890625,132.4072265625,0)" xlink:href="#au"/><use transform="matrix(0.0087890625,0,0,0.0087890625,136.7666015625,0)" xlink:href="#J"/><use transform="matrix(0.0087890625,0,0,0.0087890625,146.267578125,0)" xlink:href="#Q"/><use transform="matrix(0.0087890625,0,0,0.0087890625,152.15625,0)" xlink:href="#au"/><use transform="matrix(0.0087890625,0,0,0.0087890625,156.515625,0)" xlink:href="#P"/><use transform="matrix(0.0087890625,0,0,0.0087890625,167.150390625,0)" xlink:href="#aH"/><use transform="matrix(0.0087890625,0,0,0.0087890625,178.189453125,0)" xlink:href="#I"/><use transform="matrix(0.0087890625,0,0,0.0087890625,191.583984375,0)" xlink:href="#J"/><use transform="matrix(0.0087890625,0,0,0.0087890625,201.0849609375,0)" xlink:href="#K"/><use transform="matrix(0.0087890625,0,0,0.0087890625,211.5791015625,0)" xlink:href="#L"/><use transform="matrix(0.0087890625,0,0,0.0087890625,218.35546875,0)" xlink:href="#S"/></g><g id="H"><use transform="matrix(0.0087890625,0,0,0.0087890625,0,0)" xlink:href="#J"/><use transform="matrix(0.0087890625,0,0,0.0087890625,9.5009765625,0)" xlink:href="#K"/><use transform="matrix(0.0087890625,0,0,0.0087890625,19.9951171875,0)" xlink:href="#Q"/><use transform="matrix(0.0087890625,0,0,0.0087890625,25.8837890625,0)" xlink:href="#ay"/><use transform="matrix(0.0087890625,0,0,0.0087890625,37.3798828125,0)" xlink:href="#av"/><use transform="matrix(0.0087890625,0,0,0.0087890625,48.0234375,0)" xlink:href="#O"/><use transform="matrix(0.0087890625,0,0,0.0087890625,58.81640625,0)" xlink:href="#P"/><use transform="matrix(0.0087890625,0,0,0.0087890625,69.451171875,0)" xlink:href="#K"/><use transform="matrix(0.0087890625,0,0,0.0087890625,79.9453125,0)" xlink:href="#M"/><use transform="matrix(0.0087890625,0,0,0.0087890625,86.5107421875,0)" xlink:href="#W"/><use transform="matrix(0.0087890625,0,0,0.0087890625,97.5322265625,0)" xlink:href="#av"/><use transform="matrix(0.0087890625,0,0,0.0087890625,108.17578125,0)" xlink:href="#O"/><use transform="matrix(0.0087890625,0,0,0.0087890625,118.96875,0)" xlink:href="#P"/><use transform="matrix(0.0087890625,0,0,0.0087890625,129.603515625,0)" xlink:href="#K"/><use transform="matrix(0.0087890625,0,0,0.0087890625,139.8955078125,0)" xlink:href="#S"/></g></defs></g></svg>