<svg xmlns="http://www.w3.org/2000/svg" xmlns:xlink="http://www.w3.org/1999/xlink" xmlns:lucid="lucid" width="1348" height="564"><g transform="translate(-128 -13)" lucid:page-tab-id="HWEp-vi-RSFO"><path d="M0 0h1760v1360H0z" fill="#fff"/><path d="M1040 40h360v287h-360z" stroke="#000" stroke-width="2" fill="#fff"/><path d="M1040 77.78h360m-360 189.95h360" stroke="#000" stroke-width="2" fill="none"/><use xlink:href="#a" transform="matrix(1,0,0,1,1048,48) translate(148.52001953125 17.5478515625)"/><use xlink:href="#b" transform="matrix(1,0,0,1,1052,85.779296875) translate(0 28.2099609375)"/><use xlink:href="#c" transform="matrix(1,0,0,1,1052,85.779296875) translate(16.9716796875 28.2099609375)"/><use xlink:href="#d" transform="matrix(1,0,0,1,1052,85.779296875) translate(42.6005859375 28.2099609375)"/><use xlink:href="#e" transform="matrix(1,0,0,1,1052,85.779296875) translate(0 54.345117187499994)"/><use xlink:href="#f" transform="matrix(1,0,0,1,1052,85.779296875) translate(16.9716796875 54.345117187499994)"/><use xlink:href="#g" transform="matrix(1,0,0,1,1052,85.779296875) translate(74.2236328125 54.345117187499994)"/><use xlink:href="#e" transform="matrix(1,0,0,1,1052,85.779296875) translate(0 80.48027343749999)"/><use xlink:href="#h" transform="matrix(1,0,0,1,1052,85.779296875) translate(16.9716796875 80.48027343749999)"/><use xlink:href="#i" transform="matrix(1,0,0,1,1052,85.779296875) translate(91.0546875 80.48027343749999)"/><use xlink:href="#e" transform="matrix(1,0,0,1,1052,85.779296875) translate(0 106.6154296875)"/><use xlink:href="#j" transform="matrix(1,0,0,1,1052,85.779296875) translate(16.9716796875 106.6154296875)"/><use xlink:href="#k" transform="matrix(1,0,0,1,1052,85.779296875) translate(64.5556640625 106.6154296875)"/><use xlink:href="#e" transform="matrix(1,0,0,1,1052,85.779296875) translate(0 132.75058593749998)"/><use xlink:href="#l" transform="matrix(1,0,0,1,1052,85.779296875) translate(16.9716796875 132.75058593749998)"/><use xlink:href="#g" transform="matrix(1,0,0,1,1052,85.779296875) translate(65.091796875 132.75058593749998)"/><use xlink:href="#e" transform="matrix(1,0,0,1,1052,85.779296875) translate(0 158.8857421875)"/><use xlink:href="#m" transform="matrix(1,0,0,1,1052,85.779296875) translate(16.9716796875 158.8857421875)"/><use xlink:href="#n" transform="matrix(1,0,0,1,1052,85.779296875) translate(113.5458984375 158.8857421875)"/><use xlink:href="#e" transform="matrix(1,0,0,1,1052,275.734375) translate(0 28.5478515625)"/><use xlink:href="#o" transform="matrix(1,0,0,1,1052,275.734375) translate(16.9716796875 28.5478515625)"/><use xlink:href="#p" transform="matrix(1,0,0,1,1052,275.734375) translate(200.00390625 28.5478515625)"/><path d="M380 63.74h360v156H380z" stroke="#000" stroke-width="2" fill="#fff"/><path d="M380 101.52h360M380 160.8h360" stroke="#000" stroke-width="2" fill="none"/><use xlink:href="#q" transform="matrix(1,0,0,1,388,71.73736170018174) translate(116.3916015625 17.5478515625)"/><use xlink:href="#e" transform="matrix(1,0,0,1,392,168.79595545018174) translate(0 28.5478515625)"/><use xlink:href="#r" transform="matrix(1,0,0,1,392,168.79595545018174) translate(16.9716796875 28.5478515625)"/><use xlink:href="#s" transform="matrix(1,0,0,1,392,168.79595545018174) translate(141.0556640625 28.5478515625)"/><path d="M160 360h360v182H160z" stroke="#000" stroke-width="2" fill="#fff"/><path d="M160 397.78h360m-360 59.28h360" stroke="#000" stroke-width="2" fill="none"/><use xlink:href="#t" transform="matrix(1,0,0,1,168,368) translate(140.5966796875 17.5478515625)"/><use xlink:href="#e" transform="matrix(1,0,0,1,172,465.05859375) translate(0 28.480273437500003)"/><use xlink:href="#u" transform="matrix(1,0,0,1,172,465.05859375) translate(16.9716796875 28.480273437500003)"/><use xlink:href="#v" transform="matrix(1,0,0,1,172,465.05859375) translate(68.994140625 28.480273437500003)"/><use xlink:href="#w" transform="matrix(1,0,0,1,172,465.05859375) translate(132.8115234375 28.480273437500003)"/><use xlink:href="#x" transform="matrix(1,0,0,1,172,465.05859375) translate(206.89453125 28.480273437500003)"/><use xlink:href="#y" transform="matrix(1,0,0,1,172,465.05859375) translate(0 54.6154296875)"/><use xlink:href="#z" transform="matrix(1,0,0,1,172,465.05859375) translate(105.205078125 54.6154296875)"/><path d="M600 360h360v182H600z" stroke="#000" stroke-width="2" fill="#fff"/><path d="M600 397.78h360m-360 59.28h360" stroke="#000" stroke-width="2" fill="none"/><g><use xlink:href="#A" transform="matrix(1,0,0,1,608,368) translate(135.6044921875 17.5478515625)"/></g><g><use xlink:href="#e" transform="matrix(1,0,0,1,612,465.05859375) translate(0 28.480273437500003)"/><use xlink:href="#u" transform="matrix(1,0,0,1,612,465.05859375) translate(16.9716796875 28.480273437500003)"/><use xlink:href="#v" transform="matrix(1,0,0,1,612,465.05859375) translate(68.994140625 28.480273437500003)"/><use xlink:href="#w" transform="matrix(1,0,0,1,612,465.05859375) translate(132.8115234375 28.480273437500003)"/><use xlink:href="#B" transform="matrix(1,0,0,1,612,465.05859375) translate(206.89453125 28.480273437500003)"/><use xlink:href="#C" transform="matrix(1,0,0,1,612,465.05859375) translate(254.478515625 28.480273437500003)"/><use xlink:href="#z" transform="matrix(1,0,0,1,612,465.05859375) translate(0 54.6154296875)"/></g><path d="M1040 440h160v80h-160z" stroke="#000" stroke-width="2" fill="#fff"/><g><use xlink:href="#D" transform="matrix(1,0,0,1,1045,445) translate(35.16796875 41.5478515625)"/></g><path d="M1260 440h160v80h-160z" stroke="#000" stroke-width="2" fill="#fff"/><g><use xlink:href="#E" transform="matrix(1,0,0,1,1265,445) translate(50.22802734375 41.5478515625)"/></g><path d="M742 141.74h9.84m9.84 0h19.68m9.84 0h19.68m9.84 0h19.67m9.83 0h19.68m9.85 0h19.68m9.84 0h19.68m9.84 0h19.67m9.84 0H988m9.82 0h19.68m9.84 0h9.84" stroke="#333" stroke-width="2" fill="none"/><path d="M742.03 142.7H741v-1.94h1.03z" stroke="#333" stroke-width=".05" fill="#333"/><path d="M1019.68 131.74l17.32 10-17.32 10M340 358v-56.13a12 12 0 0 1 12-12h196a12 12 0 0 0 12-12v-38.63" stroke="#333" stroke-width="2" fill="none"/><path d="M340.98 359h-1.96v-1.03h1.96z" stroke="#333" stroke-width=".05" fill="#333"/><path d="M560 223.97l4.63 14.27h-9.26z" stroke="#333" stroke-width="2" fill="#333"/><path d="M780 358v-56.13a12 12 0 0 0-12-12H572a12 12 0 0 1-12-12V245.4" stroke="#333" stroke-width="2" fill="none"/><path d="M780.98 359H779v-1.03H781z" stroke="#333" stroke-width=".05" fill="#333"/><path d="M560 222.74l12.5 21.65h-25z" stroke="#333" stroke-width="2" fill="#fff"/><path d="M1120 438v-14.17m0-14.16V395.5l.15-1.88.44-1.83.7-1.75 1-1.6 1.22-1.44 1.43-1.2 1.6-1 1.74-.7 1.82-.45 1.88-.15h8.44m8.45 0h16.88m8.44 0h16.9m8.44 0h8.44l1.88-.15 1.83-.44 1.75-.7 1.6-1 1.43-1.2 1.23-1.45 1-1.6.7-1.74.45-1.82.15-1.88v-8.33m0-8.34v-8.33" stroke="#333" stroke-width="2" fill="none"/><path d="M1120.97 439h-1.94v-1.03h1.94z" stroke="#333" stroke-width=".05" fill="#333"/><path d="M1220 331.24l4.63 14.26h-9.27z" stroke="#333" stroke-width="2" fill="#333"/><path d="M1340 438v-14.17m0-14.16V395.5l-.15-1.88-.44-1.83-.7-1.75-1-1.6-1.22-1.44-1.43-1.2-1.6-1-1.74-.7-1.82-.45-1.88-.15h-10.67m-10.66 0h-21.34m-10.66 0h-21.34m-10.66 0H1232l-1.88-.15-1.83-.44-1.75-.7-1.6-1-1.43-1.2-1.23-1.45-1-1.6-.7-1.74-.45-1.82-.15-1.88v-18.85" stroke="#333" stroke-width="2" fill="none"/><path d="M1340.97 439h-1.94v-1.03h1.94z" stroke="#333" stroke-width=".05" fill="#333"/><path d="M1220 330l12.5 21.65h-25z" stroke="#333" stroke-width="2" fill="#fff"/><defs><path d="M180 0v-1490h270l367 940c28 72 75 218 110 339 35-117 81-264 110-339l362-940h271V0h-187c2-448-5-837 7-1287-157 497-311 829-483 1287H842C666-458 514-784 354-1284c12 438 5 843 7 1284H180" id="F"/><path d="M613 24c-304 0-509-231-509-576 0-350 205-580 509-580 305 0 511 230 511 580 0 345-206 576-511 576zm0-161c226 0 329-195 329-415 0-222-103-419-329-419-223 0-326 196-326 419 0 220 103 415 326 415" id="G"/><path d="M481 0L54-1118h197c107 314 236 620 325 951 87-331 217-637 324-951h197L670 0H481" id="H"/><path d="M628 24c-324 0-524-230-524-574 0-343 198-582 503-582 237 0 487 146 487 559v75H286c9 234 145 362 343 362 132 0 231-58 273-172l174 48C1024-91 857 24 628 24zM287-650h624c-17-190-120-322-304-322-192 0-309 151-320 322" id="I"/><g id="a"><use transform="matrix(0.0087890625,0,0,0.0087890625,0,0)" xlink:href="#F"/><use transform="matrix(0.0087890625,0,0,0.0087890625,16.259765625,0)" xlink:href="#G"/><use transform="matrix(0.0087890625,0,0,0.0087890625,26.701171875,0)" xlink:href="#H"/><use transform="matrix(0.0087890625,0,0,0.0087890625,36.4658203125,0)" xlink:href="#I"/></g><path d="M593-100v-404H195v-159h398v-403h169v403h398v159H762v404H593" id="J"/><use transform="matrix(0.0087890625,0,0,0.0087890625,0,0)" xlink:href="#J" id="b"/><path d="M158 0v-1118h180V0H158zm91-1301c-68 0-125-53-125-119s57-119 125-119c69 0 126 53 126 119s-57 119-126 119" id="K"/><path d="M577 24c-279 0-473-224-473-580 0-354 195-576 474-576 218 0 287 134 324 193h14v-551h180V0H922v-173h-20C865-111 790 24 577 24zm27-161c203 0 314-172 314-421 0-247-108-413-314-413-212 0-317 181-317 413 0 235 108 421 317 421" id="L"/><path d="M295 13c-75 0-135-60-135-135s60-135 135-135 135 60 135 135S370 13 295 13zm0-809c-75 0-135-60-135-135s60-135 135-135 135 60 135 135-60 135-135 135" id="M"/><g id="c"><use transform="matrix(0.0087890625,0,0,0.0087890625,0,0)" xlink:href="#K"/><use transform="matrix(0.0087890625,0,0,0.0087890625,4.359375,0)" xlink:href="#L"/><use transform="matrix(0.0087890625,0,0,0.0087890625,15.380859375,0)" xlink:href="#M"/></g><path d="M338-670V0H158v-1118h173l1 207c72-158 192-221 342-221 226 0 378 139 378 422V0H872v-695c0-172-96-275-252-275-161 0-282 109-282 300" id="N"/><path d="M537 14c-226 0-379-139-379-422v-710h180v695c0 172 97 275 253 275 160 0 281-109 281-300v-670h181V0H879v-209C806-46 684 14 537 14" id="O"/><path d="M338-1490V0H158v-1490h180" id="P"/><g id="d"><use transform="matrix(0.0087890625,0,0,0.0087890625,0,0)" xlink:href="#N"/><use transform="matrix(0.0087890625,0,0,0.0087890625,10.634765625,0)" xlink:href="#O"/><use transform="matrix(0.0087890625,0,0,0.0087890625,21.2783203125,0)" xlink:href="#P"/><use transform="matrix(0.0087890625,0,0,0.0087890625,25.6376953125,0)" xlink:href="#P"/></g><use transform="matrix(0.0087890625,0,0,0.0087890625,0,0)" xlink:href="#J" id="e"/><path d="M471 26C259 26 90-98 90-318c0-256 228-303 435-329 202-27 287-16 287-108 0-139-79-219-234-219-161 0-248 86-283 164l-173-57c86-203 278-265 451-265 150 0 419 46 419 395V0H815v-152h-12C765-73 660 26 471 26zm31-159c199 0 310-134 310-271v-155c-30 35-226 55-295 64-131 17-246 59-246 186 0 116 97 176 231 176" id="Q"/><path d="M158 0v-1118h175l1 205c55-151 181-225 313-225 147 0 245 90 285 228 53-141 190-228 352-228 194 0 352 125 352 384V0h-181v-749c0-161-105-225-225-225-151 0-243 103-243 244V0H807v-767c0-124-93-207-219-207-131 0-250 92-250 270V0H158" id="R"/><g id="f"><use transform="matrix(0.0087890625,0,0,0.0087890625,0,0)" xlink:href="#N"/><use transform="matrix(0.0087890625,0,0,0.0087890625,10.634765625,0)" xlink:href="#Q"/><use transform="matrix(0.0087890625,0,0,0.0087890625,20.7421875,0)" xlink:href="#R"/><use transform="matrix(0.0087890625,0,0,0.0087890625,36.509765625,0)" xlink:href="#I"/><use transform="matrix(0.0087890625,0,0,0.0087890625,47.00390625,0)" xlink:href="#M"/></g><path d="M657 26c-323 0-524-166-541-416h195c15 169 171 246 346 246 202 0 356-106 356-265 5-203-294-238-475-293-239-73-380-191-380-389 0-252 224-419 512-419 294 0 499 171 508 396H992c-17-145-151-228-328-228-193 0-321 102-321 242 0 156 175 211 284 241l149 41c160 44 422 134 422 412 0 244-197 432-541 432" id="S"/><path d="M598-1118v154H368v674c0 100 37 144 132 144 23 0 62-6 92-12L629-6c-37 13-88 20-134 20-193 0-307-107-307-290v-688H20v-154h168v-266h180v266h230" id="T"/><path d="M158 0v-1118h174v172h12c41-113 157-188 290-188 26 0 70 2 91 3v181c-11-2-60-10-108-10-161 0-279 109-279 260V0H158" id="U"/><path d="M611 442c-248 0-391-105-460-228l146-94c47 65 117 165 314 165 178 0 307-82 307-266v-224h-17C863-141 792-18 576-18c-268 0-472-195-472-546 0-346 197-568 476-568 216 0 288 133 326 193h17v-179h175V29c0 289-215 413-487 413zm-5-620c203 0 314-146 314-390 0-237-108-403-314-403-213 0-319 180-319 403 0 230 109 390 319 390" id="V"/><g id="g"><use transform="matrix(0.0087890625,0,0,0.0087890625,0,0)" xlink:href="#S"/><use transform="matrix(0.0087890625,0,0,0.0087890625,11.548828125,0)" xlink:href="#T"/><use transform="matrix(0.0087890625,0,0,0.0087890625,17.4375,0)" xlink:href="#U"/><use transform="matrix(0.0087890625,0,0,0.0087890625,24.4951171875,0)" xlink:href="#K"/><use transform="matrix(0.0087890625,0,0,0.0087890625,28.8544921875,0)" xlink:href="#N"/><use transform="matrix(0.0087890625,0,0,0.0087890625,39.4892578125,0)" xlink:href="#V"/></g><g id="h"><use transform="matrix(0.0087890625,0,0,0.0087890625,0,0)" xlink:href="#Q"/><use transform="matrix(0.0087890625,0,0,0.0087890625,10.107421875,0)" xlink:href="#R"/><use transform="matrix(0.0087890625,0,0,0.0087890625,25.875,0)" xlink:href="#G"/><use transform="matrix(0.0087890625,0,0,0.0087890625,36.66796875,0)" xlink:href="#O"/><use transform="matrix(0.0087890625,0,0,0.0087890625,47.3115234375,0)" xlink:href="#N"/><use transform="matrix(0.0087890625,0,0,0.0087890625,57.9462890625,0)" xlink:href="#T"/><use transform="matrix(0.0087890625,0,0,0.0087890625,63.8349609375,0)" xlink:href="#M"/></g><path d="M370-1490V0H180v-1490h190" id="W"/><g id="i"><use transform="matrix(0.0087890625,0,0,0.0087890625,0,0)" xlink:href="#W"/><use transform="matrix(0.0087890625,0,0,0.0087890625,4.833984375,0)" xlink:href="#N"/><use transform="matrix(0.0087890625,0,0,0.0087890625,15.46875,0)" xlink:href="#T"/></g><g id="j"><use transform="matrix(0.0087890625,0,0,0.0087890625,0,0)" xlink:href="#L"/><use transform="matrix(0.0087890625,0,0,0.0087890625,11.021484375,0)" xlink:href="#Q"/><use transform="matrix(0.0087890625,0,0,0.0087890625,21.12890625,0)" xlink:href="#T"/><use transform="matrix(0.0087890625,0,0,0.0087890625,26.841796875,0)" xlink:href="#I"/><use transform="matrix(0.0087890625,0,0,0.0087890625,37.3359375,0)" xlink:href="#M"/></g><path d="M645 0H180v-1490h484c435 0 692 280 692 742 0 466-257 748-711 748zM370-168h263c363 0 539-218 539-580 0-358-176-574-521-574H370v1154" id="X"/><g id="k"><use transform="matrix(0.0087890625,0,0,0.0087890625,0,0)" xlink:href="#X"/><use transform="matrix(0.0087890625,0,0,0.0087890625,12.990234375,0)" xlink:href="#Q"/><use transform="matrix(0.0087890625,0,0,0.0087890625,23.09765625,0)" xlink:href="#T"/><use transform="matrix(0.0087890625,0,0,0.0087890625,28.810546875,0)" xlink:href="#I"/></g><path d="M140 405l46-156c120 36 205 19 263-150l32-93L54-1118h197c107 313 237 620 324 950 87-331 219-637 326-950h196L606 167c-68 178-176 259-334 259-64 0-113-12-132-21" id="Y"/><path d="M158 418v-1536h174v179h20c37-59 106-193 324-193 279 0 474 222 474 576 0 356-194 580-473 580-213 0-288-135-325-197h-14v591H158zm492-555c209 0 317-186 317-421 0-232-105-413-317-413-206 0-314 166-314 413 0 249 111 421 314 421" id="Z"/><g id="l"><use transform="matrix(0.0087890625,0,0,0.0087890625,0,0)" xlink:href="#T"/><use transform="matrix(0.0087890625,0,0,0.0087890625,6.240234375,0)" xlink:href="#Y"/><use transform="matrix(0.0087890625,0,0,0.0087890625,16.3564453125,0)" xlink:href="#Z"/><use transform="matrix(0.0087890625,0,0,0.0087890625,27.3779296875,0)" xlink:href="#I"/><use transform="matrix(0.0087890625,0,0,0.0087890625,37.8720703125,0)" xlink:href="#M"/></g><path d="M52 0l541-1490h220L1361 0h-200l-149-416H398L254 0H52zm404-582h497c-103-290-145-390-251-756-108 377-145 460-246 756" id="aa"/><path d="M613 24c-304 0-509-231-509-576 0-350 205-580 509-580 216 0 392 114 453 309l-173 49c-33-115-133-197-280-197-223 0-326 196-326 419 0 220 103 415 326 415 150 0 252-85 285-206l172 49C1010-95 832 24 613 24" id="ab"/><g id="m"><use transform="matrix(0.0087890625,0,0,0.0087890625,0,0)" xlink:href="#K"/><use transform="matrix(0.0087890625,0,0,0.0087890625,4.359375,0)" xlink:href="#L"/><use transform="matrix(0.0087890625,0,0,0.0087890625,15.380859375,0)" xlink:href="#aa"/><use transform="matrix(0.0087890625,0,0,0.0087890625,27.7998046875,0)" xlink:href="#ab"/><use transform="matrix(0.0087890625,0,0,0.0087890625,38.0830078125,0)" xlink:href="#ab"/><use transform="matrix(0.0087890625,0,0,0.0087890625,48.3662109375,0)" xlink:href="#G"/><use transform="matrix(0.0087890625,0,0,0.0087890625,59.1591796875,0)" xlink:href="#O"/><use transform="matrix(0.0087890625,0,0,0.0087890625,69.802734375,0)" xlink:href="#N"/><use transform="matrix(0.0087890625,0,0,0.0087890625,80.4375,0)" xlink:href="#T"/><use transform="matrix(0.0087890625,0,0,0.0087890625,86.326171875,0)" xlink:href="#M"/></g><g id="n"><use transform="matrix(0.0087890625,0,0,0.0087890625,0,0)" xlink:href="#W"/><use transform="matrix(0.0087890625,0,0,0.0087890625,4.833984375,0)" xlink:href="#N"/><use transform="matrix(0.0087890625,0,0,0.0087890625,15.46875,0)" xlink:href="#T"/></g><path d="M538 24C308 24 148-78 108-271l171-41c32 123 123 178 257 178 156 0 256-77 256-169 0-77-54-128-164-154l-186-44c-203-48-300-148-300-305 0-192 176-326 414-326 230 0 351 112 402 269l-163 42c-31-80-94-158-238-158-133 0-233 69-233 162 0 83 57 129 188 160l169 40c203 48 298 149 298 302 0 196-179 339-441 339" id="ac"/><path d="M784 20c-382 0-662-292-662-764 0-473 280-766 662-766s660 293 660 766c0 282-99 499-260 629l192 255h-198L1049-33C969 2 880 20 784 20zm-62-486h198l156 205c112-98 183-261 183-483 0-383-209-590-475-590-268 0-477 208-477 590 0 380 209 588 477 588 54 0 106-9 154-25" id="ad"/><path d="M180 0v-1490h190v1322h690V0H180" id="ae"/><path d="M218-607c0-325 108-727 258-974h175c-155 315-250 682-250 974 0 265 78 531 250 886H476C306-10 218-315 218-607" id="af"/><path d="M96 279C273-86 346-350 346-607c0-292-95-659-250-974h175c150 246 258 650 258 974 0 297-91 602-258 886H96" id="ag"/><g id="o"><use transform="matrix(0.0087890625,0,0,0.0087890625,0,0)" xlink:href="#V"/><use transform="matrix(0.0087890625,0,0,0.0087890625,11.0390625,0)" xlink:href="#I"/><use transform="matrix(0.0087890625,0,0,0.0087890625,21.533203125,0)" xlink:href="#N"/><use transform="matrix(0.0087890625,0,0,0.0087890625,32.16796875,0)" xlink:href="#I"/><use transform="matrix(0.0087890625,0,0,0.0087890625,42.662109375,0)" xlink:href="#U"/><use transform="matrix(0.0087890625,0,0,0.0087890625,49.4384765625,0)" xlink:href="#Q"/><use transform="matrix(0.0087890625,0,0,0.0087890625,59.5458984375,0)" xlink:href="#T"/><use transform="matrix(0.0087890625,0,0,0.0087890625,65.2587890625,0)" xlink:href="#I"/><use transform="matrix(0.0087890625,0,0,0.0087890625,75.7529296875,0)" xlink:href="#W"/><use transform="matrix(0.0087890625,0,0,0.0087890625,80.5869140625,0)" xlink:href="#N"/><use transform="matrix(0.0087890625,0,0,0.0087890625,91.2216796875,0)" xlink:href="#ac"/><use transform="matrix(0.0087890625,0,0,0.0087890625,100.72265625,0)" xlink:href="#I"/><use transform="matrix(0.0087890625,0,0,0.0087890625,111.216796875,0)" xlink:href="#U"/><use transform="matrix(0.0087890625,0,0,0.0087890625,118.2744140625,0)" xlink:href="#T"/><use transform="matrix(0.0087890625,0,0,0.0087890625,124.1630859375,0)" xlink:href="#S"/><use transform="matrix(0.0087890625,0,0,0.0087890625,135.7119140625,0)" xlink:href="#ad"/><use transform="matrix(0.0087890625,0,0,0.0087890625,149.4755859375,0)" xlink:href="#ae"/><use transform="matrix(0.0087890625,0,0,0.0087890625,159.6533203125,0)" xlink:href="#af"/><use transform="matrix(0.0087890625,0,0,0.0087890625,166.21875,0)" xlink:href="#ag"/><use transform="matrix(0.0087890625,0,0,0.0087890625,172.7841796875,0)" xlink:href="#M"/></g><g id="p"><use transform="matrix(0.0087890625,0,0,0.0087890625,0,0)" xlink:href="#S"/><use transform="matrix(0.0087890625,0,0,0.0087890625,11.548828125,0)" xlink:href="#T"/><use transform="matrix(0.0087890625,0,0,0.0087890625,17.4375,0)" xlink:href="#U"/><use transform="matrix(0.0087890625,0,0,0.0087890625,24.4951171875,0)" xlink:href="#K"/><use transform="matrix(0.0087890625,0,0,0.0087890625,28.8544921875,0)" xlink:href="#N"/><use transform="matrix(0.0087890625,0,0,0.0087890625,39.4892578125,0)" xlink:href="#V"/></g><path d="M180 0v-1490h901v168H370v510h643v168H370V0H180" id="ah"/><g id="q"><use transform="matrix(0.0087890625,0,0,0.0087890625,0,0)" xlink:href="#F"/><use transform="matrix(0.0087890625,0,0,0.0087890625,16.259765625,0)" xlink:href="#G"/><use transform="matrix(0.0087890625,0,0,0.0087890625,26.701171875,0)" xlink:href="#H"/><use transform="matrix(0.0087890625,0,0,0.0087890625,36.4658203125,0)" xlink:href="#I"/><use transform="matrix(0.0087890625,0,0,0.0087890625,46.9599609375,0)" xlink:href="#ah"/><use transform="matrix(0.0087890625,0,0,0.0087890625,57.146484375,0)" xlink:href="#Q"/><use transform="matrix(0.0087890625,0,0,0.0087890625,67.25390625,0)" xlink:href="#ab"/><use transform="matrix(0.0087890625,0,0,0.0087890625,77.537109375,0)" xlink:href="#T"/><use transform="matrix(0.0087890625,0,0,0.0087890625,83.25,0)" xlink:href="#G"/><use transform="matrix(0.0087890625,0,0,0.0087890625,94.04296875,0)" xlink:href="#U"/><use transform="matrix(0.0087890625,0,0,0.0087890625,101.1005859375,0)" xlink:href="#Y"/></g><g id="r"><use transform="matrix(0.0087890625,0,0,0.0087890625,0,0)" xlink:href="#ab"/><use transform="matrix(0.0087890625,0,0,0.0087890625,10.283203125,0)" xlink:href="#U"/><use transform="matrix(0.0087890625,0,0,0.0087890625,16.7607421875,0)" xlink:href="#I"/><use transform="matrix(0.0087890625,0,0,0.0087890625,27.4306640625,0)" xlink:href="#Q"/><use transform="matrix(0.0087890625,0,0,0.0087890625,37.5380859375,0)" xlink:href="#T"/><use transform="matrix(0.0087890625,0,0,0.0087890625,43.2509765625,0)" xlink:href="#I"/><use transform="matrix(0.0087890625,0,0,0.0087890625,53.7451171875,0)" xlink:href="#F"/><use transform="matrix(0.0087890625,0,0,0.0087890625,70.0048828125,0)" xlink:href="#G"/><use transform="matrix(0.0087890625,0,0,0.0087890625,80.4462890625,0)" xlink:href="#H"/><use transform="matrix(0.0087890625,0,0,0.0087890625,90.2109375,0)" xlink:href="#I"/><use transform="matrix(0.0087890625,0,0,0.0087890625,100.705078125,0)" xlink:href="#af"/><use transform="matrix(0.0087890625,0,0,0.0087890625,107.2705078125,0)" xlink:href="#ag"/><use transform="matrix(0.0087890625,0,0,0.0087890625,113.8359375,0)" xlink:href="#M"/></g><g id="s"><use transform="matrix(0.0087890625,0,0,0.0087890625,0,0)" xlink:href="#F"/><use transform="matrix(0.0087890625,0,0,0.0087890625,16.259765625,0)" xlink:href="#G"/><use transform="matrix(0.0087890625,0,0,0.0087890625,26.701171875,0)" xlink:href="#H"/><use transform="matrix(0.0087890625,0,0,0.0087890625,36.4658203125,0)" xlink:href="#I"/></g><g id="t"><use transform="matrix(0.0087890625,0,0,0.0087890625,0,0)" xlink:href="#W"/><use transform="matrix(0.0087890625,0,0,0.0087890625,4.833984375,0)" xlink:href="#N"/><use transform="matrix(0.0087890625,0,0,0.0087890625,15.46875,0)" xlink:href="#ab"/><use transform="matrix(0.0087890625,0,0,0.0087890625,25.751953125,0)" xlink:href="#G"/><use transform="matrix(0.0087890625,0,0,0.0087890625,36.544921875,0)" xlink:href="#R"/><use transform="matrix(0.0087890625,0,0,0.0087890625,52.3125,0)" xlink:href="#I"/></g><g id="u"><use transform="matrix(0.0087890625,0,0,0.0087890625,0,0)" xlink:href="#F"/><use transform="matrix(0.0087890625,0,0,0.0087890625,16.259765625,0)" xlink:href="#G"/><use transform="matrix(0.0087890625,0,0,0.0087890625,26.701171875,0)" xlink:href="#H"/><use transform="matrix(0.0087890625,0,0,0.0087890625,36.4658203125,0)" xlink:href="#I"/></g><path d="M128 359l88-567h206L266 359H128" id="ai"/><g id="v"><use transform="matrix(0.0087890625,0,0,0.0087890625,0,0)" xlink:href="#af"/><use transform="matrix(0.0087890625,0,0,0.0087890625,6.5654296875,0)" xlink:href="#N"/><use transform="matrix(0.0087890625,0,0,0.0087890625,17.2001953125,0)" xlink:href="#Q"/><use transform="matrix(0.0087890625,0,0,0.0087890625,27.3076171875,0)" xlink:href="#R"/><use transform="matrix(0.0087890625,0,0,0.0087890625,43.0751953125,0)" xlink:href="#I"/><use transform="matrix(0.0087890625,0,0,0.0087890625,53.5693359375,0)" xlink:href="#ai"/></g><g id="w"><use transform="matrix(0.0087890625,0,0,0.0087890625,0,0)" xlink:href="#Q"/><use transform="matrix(0.0087890625,0,0,0.0087890625,10.107421875,0)" xlink:href="#R"/><use transform="matrix(0.0087890625,0,0,0.0087890625,25.875,0)" xlink:href="#G"/><use transform="matrix(0.0087890625,0,0,0.0087890625,36.66796875,0)" xlink:href="#O"/><use transform="matrix(0.0087890625,0,0,0.0087890625,47.3115234375,0)" xlink:href="#N"/><use transform="matrix(0.0087890625,0,0,0.0087890625,57.9462890625,0)" xlink:href="#T"/><use transform="matrix(0.0087890625,0,0,0.0087890625,63.8349609375,0)" xlink:href="#ai"/></g><g id="x"><use transform="matrix(0.0087890625,0,0,0.0087890625,0,0)" xlink:href="#L"/><use transform="matrix(0.0087890625,0,0,0.0087890625,11.021484375,0)" xlink:href="#Q"/><use transform="matrix(0.0087890625,0,0,0.0087890625,21.12890625,0)" xlink:href="#T"/><use transform="matrix(0.0087890625,0,0,0.0087890625,26.841796875,0)" xlink:href="#I"/><use transform="matrix(0.0087890625,0,0,0.0087890625,37.3359375,0)" xlink:href="#ai"/></g><path d="M232-923l-22-567h194l-22 567H232zm340 0l-22-567h194l-22 567H572" id="aj"/><path d="M789 20c-398 0-667-293-667-764 0-473 273-766 655-766 315 0 558 198 612 487h-196c-61-191-204-311-415-311-262 0-471 207-471 590 0 380 208 588 482 588 249 0 420-165 425-427H828v-166h572v163c0 370-256 606-611 606" id="ak"/><g id="y"><use transform="matrix(0.0087890625,0,0,0.0087890625,0,0)" xlink:href="#aj"/><use transform="matrix(0.0087890625,0,0,0.0087890625,8.384765625,0)" xlink:href="#ak"/><use transform="matrix(0.0087890625,0,0,0.0087890625,21.814453125,0)" xlink:href="#Q"/><use transform="matrix(0.0087890625,0,0,0.0087890625,31.921875,0)" xlink:href="#N"/><use transform="matrix(0.0087890625,0,0,0.0087890625,42.556640625,0)" xlink:href="#Q"/><use transform="matrix(0.0087890625,0,0,0.0087890625,52.6640625,0)" xlink:href="#N"/><use transform="matrix(0.0087890625,0,0,0.0087890625,63.298828125,0)" xlink:href="#ab"/><use transform="matrix(0.0087890625,0,0,0.0087890625,73.58203125,0)" xlink:href="#K"/><use transform="matrix(0.0087890625,0,0,0.0087890625,77.94140625,0)" xlink:href="#Q"/><use transform="matrix(0.0087890625,0,0,0.0087890625,88.048828125,0)" xlink:href="#aj"/><use transform="matrix(0.0087890625,0,0,0.0087890625,94.95703125,0)" xlink:href="#ai"/></g><g id="z"><use transform="matrix(0.0087890625,0,0,0.0087890625,0,0)" xlink:href="#K"/><use transform="matrix(0.0087890625,0,0,0.0087890625,4.359375,0)" xlink:href="#L"/><use transform="matrix(0.0087890625,0,0,0.0087890625,15.380859375,0)" xlink:href="#aa"/><use transform="matrix(0.0087890625,0,0,0.0087890625,27.7998046875,0)" xlink:href="#ab"/><use transform="matrix(0.0087890625,0,0,0.0087890625,38.0830078125,0)" xlink:href="#ab"/><use transform="matrix(0.0087890625,0,0,0.0087890625,48.3662109375,0)" xlink:href="#G"/><use transform="matrix(0.0087890625,0,0,0.0087890625,59.1591796875,0)" xlink:href="#O"/><use transform="matrix(0.0087890625,0,0,0.0087890625,69.802734375,0)" xlink:href="#N"/><use transform="matrix(0.0087890625,0,0,0.0087890625,80.4375,0)" xlink:href="#T"/><use transform="matrix(0.0087890625,0,0,0.0087890625,86.326171875,0)" xlink:href="#ag"/></g><path d="M180 0v-1490h908v168H370v486h669v168H370v500h727V0H180" id="al"/><path d="M65 0l393-574-370-544h210c88 136 192 297 267 435 67-142 176-302 264-435h206L661-564 1053 0H844c-94-144-206-310-287-458C484-308 366-142 273 0H65" id="am"/><g id="A"><use transform="matrix(0.0087890625,0,0,0.0087890625,0,0)" xlink:href="#al"/><use transform="matrix(0.0087890625,0,0,0.0087890625,10.8193359375,0)" xlink:href="#am"/><use transform="matrix(0.0087890625,0,0,0.0087890625,20.6455078125,0)" xlink:href="#Z"/><use transform="matrix(0.0087890625,0,0,0.0087890625,31.6669921875,0)" xlink:href="#I"/><use transform="matrix(0.0087890625,0,0,0.0087890625,42.1611328125,0)" xlink:href="#N"/><use transform="matrix(0.0087890625,0,0,0.0087890625,52.7958984375,0)" xlink:href="#ac"/><use transform="matrix(0.0087890625,0,0,0.0087890625,62.296875,0)" xlink:href="#I"/></g><g id="B"><use transform="matrix(0.0087890625,0,0,0.0087890625,0,0)" xlink:href="#L"/><use transform="matrix(0.0087890625,0,0,0.0087890625,11.021484375,0)" xlink:href="#Q"/><use transform="matrix(0.0087890625,0,0,0.0087890625,21.12890625,0)" xlink:href="#T"/><use transform="matrix(0.0087890625,0,0,0.0087890625,26.841796875,0)" xlink:href="#I"/><use transform="matrix(0.0087890625,0,0,0.0087890625,37.3359375,0)" xlink:href="#ai"/></g><g id="C"><use transform="matrix(0.0087890625,0,0,0.0087890625,0,0)" xlink:href="#aj"/><use transform="matrix(0.0087890625,0,0,0.0087890625,8.384765625,0)" xlink:href="#ak"/><use transform="matrix(0.0087890625,0,0,0.0087890625,21.814453125,0)" xlink:href="#Q"/><use transform="matrix(0.0087890625,0,0,0.0087890625,31.921875,0)" xlink:href="#ac"/><use transform="matrix(0.0087890625,0,0,0.0087890625,41.4228515625,0)" xlink:href="#T"/><use transform="matrix(0.0087890625,0,0,0.0087890625,47.1357421875,0)" xlink:href="#G"/><use transform="matrix(0.0087890625,0,0,0.0087890625,57.6650390625,0)" xlink:href="#aj"/><use transform="matrix(0.0087890625,0,0,0.0087890625,64.5732421875,0)" xlink:href="#ai"/></g><g id="D"><use transform="matrix(0.0087890625,0,0,0.0087890625,0,0)" xlink:href="#ak"/><use transform="matrix(0.0087890625,0,0,0.0087890625,13.4296875,0)" xlink:href="#Q"/><use transform="matrix(0.0087890625,0,0,0.0087890625,23.537109375,0)" xlink:href="#N"/><use transform="matrix(0.0087890625,0,0,0.0087890625,34.171875,0)" xlink:href="#Q"/><use transform="matrix(0.0087890625,0,0,0.0087890625,44.279296875,0)" xlink:href="#N"/><use transform="matrix(0.0087890625,0,0,0.0087890625,54.9140625,0)" xlink:href="#ab"/><use transform="matrix(0.0087890625,0,0,0.0087890625,65.197265625,0)" xlink:href="#K"/><use transform="matrix(0.0087890625,0,0,0.0087890625,69.556640625,0)" xlink:href="#Q"/></g><g id="E"><use transform="matrix(0.0087890625,0,0,0.0087890625,0,0)" xlink:href="#ak"/><use transform="matrix(0.0087890625,0,0,0.0087890625,13.4296875,0)" xlink:href="#Q"/><use transform="matrix(0.0087890625,0,0,0.0087890625,23.537109375,0)" xlink:href="#ac"/><use transform="matrix(0.0087890625,0,0,0.0087890625,33.0380859375,0)" xlink:href="#T"/><use transform="matrix(0.0087890625,0,0,0.0087890625,38.7509765625,0)" xlink:href="#G"/></g></defs></g></svg>