<svg xmlns="http://www.w3.org/2000/svg" xmlns:xlink="http://www.w3.org/1999/xlink" xmlns:lucid="lucid" width="771" height="320"><g transform="translate(-1430 -1247)" lucid:page-tab-id="HWEp-vi-RSFO"><path d="M0 0h2353.52v3280H0z" fill="#fff"/><path d="M1480 1340h160v80h-160z" stroke="#000" stroke-width="2" fill="#fff"/><use xlink:href="#a" transform="matrix(1,0,0,1,1485,1345) translate(28.38720703125 41.5478515625)"/><path d="M1720 1289h360v235h-360z" stroke="#000" stroke-width="2" fill="#fff"/><path d="M1720 1326.78h360m-360 59.28h360" stroke="#000" stroke-width="2" fill="none"/><use xlink:href="#b" transform="matrix(1,0,0,1,1728,1297) translate(82.92724609375 17.5478515625)"/><use xlink:href="#c" transform="matrix(1,0,0,1,1732,1334.779296875) translate(0 28.5478515625)"/><use xlink:href="#d" transform="matrix(1,0,0,1,1732,1334.779296875) translate(16.4619140625 28.5478515625)"/><use xlink:href="#e" transform="matrix(1,0,0,1,1732,1334.779296875) translate(98.701171875 28.5478515625)"/><use xlink:href="#f" transform="matrix(1,0,0,1,1732,1394.05859375) translate(0 28.3451171875)"/><use xlink:href="#g" transform="matrix(1,0,0,1,1732,1394.05859375) translate(16.9716796875 28.3451171875)"/><use xlink:href="#f" transform="matrix(1,0,0,1,1732,1394.05859375) translate(0 54.4802734375)"/><use xlink:href="#h" transform="matrix(1,0,0,1,1732,1394.05859375) translate(16.9716796875 54.4802734375)"/><use xlink:href="#f" transform="matrix(1,0,0,1,1732,1394.05859375) translate(0 80.6154296875)"/><use xlink:href="#i" transform="matrix(1,0,0,1,1732,1394.05859375) translate(16.9716796875 80.6154296875)"/><use xlink:href="#f" transform="matrix(1,0,0,1,1732,1394.05859375) translate(0 106.7505859375)"/><use xlink:href="#j" transform="matrix(1,0,0,1,1732,1394.05859375) translate(16.9716796875 106.7505859375)"/><path d="M2082 1421h66a12 12 0 0 0 12-12v-48a12 12 0 0 0-12-12h-65.18" stroke="#333" stroke-width="2" fill="none"/><path d="M2082.03 1421.97H2081v-1.94h1.03z" stroke="#333" stroke-width=".05" fill="#333"/><path d="M2100.32 1359l-17.32-10 17.32-10M1642 1380h75.18" stroke="#333" stroke-width="2" fill="none"/><path d="M1642.03 1380.97H1641v-1.94h1.03z" stroke="#333" stroke-width=".05" fill="#333"/><path d="M1699.68 1370l17.32 10-17.32 10" stroke="#333" stroke-width="2" fill="none"/><defs><path d="M783 20c-382 0-661-292-661-764 0-473 279-766 661-766 302 0 548 182 601 489h-190c-42-204-217-313-411-313-268 0-476 208-476 590 0 381 209 588 476 588 195 0 369-110 411-313h190c-52 303-296 489-601 489" id="k"/><path d="M613 24c-304 0-509-231-509-576 0-350 205-580 509-580 305 0 511 230 511 580 0 345-206 576-511 576zm0-161c226 0 329-195 329-415 0-222-103-419-329-419-223 0-326 196-326 419 0 220 103 415 326 415" id="l"/><path d="M338-670V0H158v-1118h173l1 207c72-158 192-221 342-221 226 0 378 139 378 422V0H872v-695c0-172-96-275-252-275-161 0-282 109-282 300" id="m"/><path d="M598-1118v154H368v674c0 100 37 144 132 144 23 0 62-6 92-12L629-6c-37 13-88 20-134 20-193 0-307-107-307-290v-688H20v-154h168v-266h180v266h230" id="n"/><path d="M158 0v-1118h174v172h12c41-113 157-188 290-188 26 0 70 2 91 3v181c-11-2-60-10-108-10-161 0-279 109-279 260V0H158" id="o"/><path d="M338-1490V0H158v-1490h180" id="p"/><path d="M628 24c-324 0-524-230-524-574 0-343 198-582 503-582 237 0 487 146 487 559v75H286c9 234 145 362 343 362 132 0 231-58 273-172l174 48C1024-91 857 24 628 24zM287-650h624c-17-190-120-322-304-322-192 0-309 151-320 322" id="q"/><path d="M538 24C308 24 148-78 108-271l171-41c32 123 123 178 257 178 156 0 256-77 256-169 0-77-54-128-164-154l-186-44c-203-48-300-148-300-305 0-192 176-326 414-326 230 0 351 112 402 269l-163 42c-31-80-94-158-238-158-133 0-233 69-233 162 0 83 57 129 188 160l169 40c203 48 298 149 298 302 0 196-179 339-441 339" id="r"/><g id="a"><use transform="matrix(0.0087890625,0,0,0.0087890625,0,0)" xlink:href="#k"/><use transform="matrix(0.0087890625,0,0,0.0087890625,13.1484375,0)" xlink:href="#l"/><use transform="matrix(0.0087890625,0,0,0.0087890625,23.94140625,0)" xlink:href="#m"/><use transform="matrix(0.0087890625,0,0,0.0087890625,34.576171875,0)" xlink:href="#n"/><use transform="matrix(0.0087890625,0,0,0.0087890625,40.46484375,0)" xlink:href="#o"/><use transform="matrix(0.0087890625,0,0,0.0087890625,46.9423828125,0)" xlink:href="#l"/><use transform="matrix(0.0087890625,0,0,0.0087890625,57.7353515625,0)" xlink:href="#p"/><use transform="matrix(0.0087890625,0,0,0.0087890625,62.0947265625,0)" xlink:href="#p"/><use transform="matrix(0.0087890625,0,0,0.0087890625,66.4541015625,0)" xlink:href="#q"/><use transform="matrix(0.0087890625,0,0,0.0087890625,76.9482421875,0)" xlink:href="#o"/><use transform="matrix(0.0087890625,0,0,0.0087890625,83.724609375,0)" xlink:href="#r"/></g><path d="M645 0H180v-1490h484c435 0 692 280 692 742 0 466-257 748-711 748zM370-168h263c363 0 539-218 539-580 0-358-176-574-521-574H370v1154" id="s"/><path d="M471 26C259 26 90-98 90-318c0-256 228-303 435-329 202-27 287-16 287-108 0-139-79-219-234-219-161 0-248 86-283 164l-173-57c86-203 278-265 451-265 150 0 419 46 419 395V0H815v-152h-12C765-73 660 26 471 26zm31-159c199 0 310-134 310-271v-155c-30 35-226 55-295 64-131 17-246 59-246 186 0 116 97 176 231 176" id="t"/><path d="M677 24c-213 0-288-135-325-197h-20V0H158v-1490h180v551h14c37-59 106-193 324-193 279 0 474 222 474 576 0 356-194 580-473 580zm-27-161c209 0 317-186 317-421 0-232-105-413-317-413-206 0-314 166-314 413 0 249 111 421 314 421" id="u"/><path d="M613 24c-304 0-509-231-509-576 0-350 205-580 509-580 216 0 392 114 453 309l-173 49c-33-115-133-197-280-197-223 0-326 196-326 419 0 220 103 415 326 415 150 0 252-85 285-206l172 49C1010-95 832 24 613 24" id="v"/><path d="M158 0v-1118h180V0H158zm91-1301c-68 0-125-53-125-119s57-119 125-119c69 0 126 53 126 119s-57 119-126 119" id="w"/><g id="b"><use transform="matrix(0.0087890625,0,0,0.0087890625,0,0)" xlink:href="#s"/><use transform="matrix(0.0087890625,0,0,0.0087890625,12.990234375,0)" xlink:href="#t"/><use transform="matrix(0.0087890625,0,0,0.0087890625,23.09765625,0)" xlink:href="#n"/><use transform="matrix(0.0087890625,0,0,0.0087890625,29.07421875,0)" xlink:href="#t"/><use transform="matrix(0.0087890625,0,0,0.0087890625,39.181640625,0)" xlink:href="#u"/><use transform="matrix(0.0087890625,0,0,0.0087890625,50.37890625,0)" xlink:href="#t"/><use transform="matrix(0.0087890625,0,0,0.0087890625,60.486328125,0)" xlink:href="#r"/><use transform="matrix(0.0087890625,0,0,0.0087890625,69.9873046875,0)" xlink:href="#q"/><use transform="matrix(0.0087890625,0,0,0.0087890625,80.4814453125,0)" xlink:href="#k"/><use transform="matrix(0.0087890625,0,0,0.0087890625,93.6298828125,0)" xlink:href="#l"/><use transform="matrix(0.0087890625,0,0,0.0087890625,104.4228515625,0)" xlink:href="#m"/><use transform="matrix(0.0087890625,0,0,0.0087890625,115.0576171875,0)" xlink:href="#m"/><use transform="matrix(0.0087890625,0,0,0.0087890625,125.6923828125,0)" xlink:href="#q"/><use transform="matrix(0.0087890625,0,0,0.0087890625,136.1865234375,0)" xlink:href="#v"/><use transform="matrix(0.0087890625,0,0,0.0087890625,146.4697265625,0)" xlink:href="#n"/><use transform="matrix(0.0087890625,0,0,0.0087890625,152.3583984375,0)" xlink:href="#w"/><use transform="matrix(0.0087890625,0,0,0.0087890625,156.7177734375,0)" xlink:href="#l"/><use transform="matrix(0.0087890625,0,0,0.0087890625,167.5107421875,0)" xlink:href="#m"/></g><path d="M711 0l68-411H407L340 0H189l67-411H34l25-150h222l60-366H122l25-152h219l67-411h151l-67 411h372l68-411h151l-67 411h220l-23 152h-222l-60 366h219l-25 150H931L864 0H711zM432-561h372l60-366H492" id="x"/><use transform="matrix(0.0087890625,0,0,0.0087890625,0,0)" xlink:href="#x" id="c"/><path d="M295 13c-75 0-135-60-135-135s60-135 135-135 135 60 135 135S370 13 295 13zm0-809c-75 0-135-60-135-135s60-135 135-135 135 60 135 135-60 135-135 135" id="y"/><g id="d"><use transform="matrix(0.0087890625,0,0,0.0087890625,0,0)" xlink:href="#w"/><use transform="matrix(0.0087890625,0,0,0.0087890625,4.359375,0)" xlink:href="#m"/><use transform="matrix(0.0087890625,0,0,0.0087890625,14.994140625,0)" xlink:href="#r"/><use transform="matrix(0.0087890625,0,0,0.0087890625,24.4951171875,0)" xlink:href="#n"/><use transform="matrix(0.0087890625,0,0,0.0087890625,30.4716796875,0)" xlink:href="#t"/><use transform="matrix(0.0087890625,0,0,0.0087890625,40.5791015625,0)" xlink:href="#m"/><use transform="matrix(0.0087890625,0,0,0.0087890625,51.2138671875,0)" xlink:href="#v"/><use transform="matrix(0.0087890625,0,0,0.0087890625,61.4970703125,0)" xlink:href="#q"/><use transform="matrix(0.0087890625,0,0,0.0087890625,71.9912109375,0)" xlink:href="#y"/></g><path d="M537 14c-226 0-379-139-379-422v-710h180v695c0 172 97 275 253 275 160 0 281-109 281-300v-670h181V0H879v-209C806-46 684 14 537 14" id="z"/><g id="e"><use transform="matrix(0.0087890625,0,0,0.0087890625,0,0)" xlink:href="#m"/><use transform="matrix(0.0087890625,0,0,0.0087890625,10.634765625,0)" xlink:href="#z"/><use transform="matrix(0.0087890625,0,0,0.0087890625,21.2783203125,0)" xlink:href="#p"/><use transform="matrix(0.0087890625,0,0,0.0087890625,25.6376953125,0)" xlink:href="#p"/></g><path d="M593-100v-404H195v-159h398v-403h169v403h398v159H762v404H593" id="A"/><use transform="matrix(0.0087890625,0,0,0.0087890625,0,0)" xlink:href="#A" id="f"/><path d="M611 442c-248 0-391-105-460-228l146-94c47 65 117 165 314 165 178 0 307-82 307-266v-224h-17C863-141 792-18 576-18c-268 0-472-195-472-546 0-346 197-568 476-568 216 0 288 133 326 193h17v-179h175V29c0 289-215 413-487 413zm-5-620c203 0 314-146 314-390 0-237-108-403-314-403-213 0-319 180-319 403 0 230 109 390 319 390" id="B"/><path d="M370-1490V0H180v-1490h190" id="C"/><path d="M218-607c0-325 108-727 258-974h175c-155 315-250 682-250 974 0 265 78 531 250 886H476C306-10 218-315 218-607" id="D"/><path d="M96 279C273-86 346-350 346-607c0-292-95-659-250-974h175c150 246 258 650 258 974 0 297-91 602-258 886H96" id="E"/><g id="g"><use transform="matrix(0.0087890625,0,0,0.0087890625,0,0)" xlink:href="#B"/><use transform="matrix(0.0087890625,0,0,0.0087890625,11.0390625,0)" xlink:href="#q"/><use transform="matrix(0.0087890625,0,0,0.0087890625,21.533203125,0)" xlink:href="#n"/><use transform="matrix(0.0087890625,0,0,0.0087890625,27.421875,0)" xlink:href="#C"/><use transform="matrix(0.0087890625,0,0,0.0087890625,32.255859375,0)" xlink:href="#m"/><use transform="matrix(0.0087890625,0,0,0.0087890625,42.890625,0)" xlink:href="#r"/><use transform="matrix(0.0087890625,0,0,0.0087890625,52.3916015625,0)" xlink:href="#n"/><use transform="matrix(0.0087890625,0,0,0.0087890625,58.3681640625,0)" xlink:href="#t"/><use transform="matrix(0.0087890625,0,0,0.0087890625,68.4755859375,0)" xlink:href="#m"/><use transform="matrix(0.0087890625,0,0,0.0087890625,79.1103515625,0)" xlink:href="#v"/><use transform="matrix(0.0087890625,0,0,0.0087890625,89.3935546875,0)" xlink:href="#q"/><use transform="matrix(0.0087890625,0,0,0.0087890625,99.8876953125,0)" xlink:href="#D"/><use transform="matrix(0.0087890625,0,0,0.0087890625,106.453125,0)" xlink:href="#E"/></g><path d="M180 0v-1490h510c348 0 508 209 508 474 0 266-160 477-507 477H370V0H180zm190-706h312c236 0 327-133 327-310 0-176-91-307-329-307H370v617" id="F"/><g id="h"><use transform="matrix(0.0087890625,0,0,0.0087890625,0,0)" xlink:href="#B"/><use transform="matrix(0.0087890625,0,0,0.0087890625,11.0390625,0)" xlink:href="#q"/><use transform="matrix(0.0087890625,0,0,0.0087890625,21.533203125,0)" xlink:href="#n"/><use transform="matrix(0.0087890625,0,0,0.0087890625,27.421875,0)" xlink:href="#F"/><use transform="matrix(0.0087890625,0,0,0.0087890625,38.8212890625,0)" xlink:href="#l"/><use transform="matrix(0.0087890625,0,0,0.0087890625,49.6142578125,0)" xlink:href="#l"/><use transform="matrix(0.0087890625,0,0,0.0087890625,60.4072265625,0)" xlink:href="#p"/><use transform="matrix(0.0087890625,0,0,0.0087890625,64.7666015625,0)" xlink:href="#D"/><use transform="matrix(0.0087890625,0,0,0.0087890625,71.33203125,0)" xlink:href="#E"/></g><path d="M1096 418H916v-591h-14C865-111 790 24 577 24c-279 0-473-224-473-580 0-354 195-576 474-576 218 0 287 134 324 193h20v-179h174V418zM604-137c203 0 314-172 314-421 0-247-108-413-314-413-212 0-317 181-317 413 0 235 108 421 317 421" id="G"/><path d="M140 405l46-156c120 36 205 19 263-150l32-93L54-1118h197c107 313 237 620 324 950 87-331 219-637 326-950h196L606 167c-68 178-176 259-334 259-64 0-113-12-132-21" id="H"/><g id="i"><use transform="matrix(0.0087890625,0,0,0.0087890625,0,0)" xlink:href="#G"/><use transform="matrix(0.0087890625,0,0,0.0087890625,11.021484375,0)" xlink:href="#z"/><use transform="matrix(0.0087890625,0,0,0.0087890625,21.6650390625,0)" xlink:href="#q"/><use transform="matrix(0.0087890625,0,0,0.0087890625,32.1591796875,0)" xlink:href="#o"/><use transform="matrix(0.0087890625,0,0,0.0087890625,39.216796875,0)" xlink:href="#H"/><use transform="matrix(0.0087890625,0,0,0.0087890625,49.3330078125,0)" xlink:href="#D"/><use transform="matrix(0.0087890625,0,0,0.0087890625,55.8984375,0)" xlink:href="#E"/></g><g id="j"><use transform="matrix(0.0087890625,0,0,0.0087890625,0,0)" xlink:href="#v"/><use transform="matrix(0.0087890625,0,0,0.0087890625,10.283203125,0)" xlink:href="#p"/><use transform="matrix(0.0087890625,0,0,0.0087890625,14.642578125,0)" xlink:href="#l"/><use transform="matrix(0.0087890625,0,0,0.0087890625,25.435546875,0)" xlink:href="#r"/><use transform="matrix(0.0087890625,0,0,0.0087890625,34.9365234375,0)" xlink:href="#q"/><use transform="matrix(0.0087890625,0,0,0.0087890625,45.4306640625,0)" xlink:href="#D"/><use transform="matrix(0.0087890625,0,0,0.0087890625,51.99609375,0)" xlink:href="#E"/></g></defs></g></svg>